<?xml version="1.0" encoding="utf-8"?>
<!-- Generator: Adobe Illustrator 16.0.0, SVG Export Plug-In . SVG Version: 6.00 Build 0)  -->
<!DOCTYPE svg PUBLIC "-//W3C//DTD SVG 1.1//EN" "http://www.w3.org/Graphics/SVG/1.1/DTD/svg11.dtd"[]>
<svg version="1.1" id="Layer_1" xmlns="http://www.w3.org/2000/svg" xmlns:xlink="http://www.w3.org/1999/xlink" x="0px" y="0px" width="264.348px" height="56.484px" viewBox="0 0 264.348 56.484" enable-background="new 0 0 264.348 56.484" xml:space="preserve">
  <g>
    <path fill="#FFFFFF" d="M63.82,45.062c-9.975,0-17.777-6.999-17.777-16.033c0-9.009,7.802-16.101,17.777-16.101
		c9.956,0,17.776,7.092,17.776,16.101C81.596,38.063,73.776,45.062,63.82,45.062z M63.82,19.404c-6.332,0-11.319,4.231-11.319,9.625
		c0,5.397,4.988,9.565,11.319,9.565c6.309,0,11.318-4.168,11.318-9.565C75.139,23.636,70.129,19.404,63.82,19.404z" />
    <path fill="#FFFFFF" d="M127.406,45.062c-3.596,0-6.485-2.979-6.485-6.607V25.134c0-3.17-2.762-5.729-6.198-5.729
		c-3.369,0-6.109,2.559-6.109,5.729c0,0,0,0,0,19.929c-3.593,0-6.464-2.887-6.464-6.468V25.134c0-3.17-2.769-5.729-6.206-5.729
		c-3.376,0-6.129,2.559-6.129,5.729v13.391c0,3.56-2.917,6.538-6.465,6.538V25.134c0-6.752,5.646-12.205,12.594-12.205
		c3.76,0,7.147,1.538,9.424,4.043c2.295-2.505,5.658-4.043,9.354-4.043c7.019,0,12.683,5.453,12.683,12.205V45.062z" />
    <path fill="#FFFFFF" d="M148.404,44.988c-1.688,0-3.307-0.137-4.797-0.476c-3.348-0.932-5.299-4.428-4.422-7.803
		c0.109-0.41,0.259-0.809,0.402-1.15l0.056-0.056c1.805,2.009,4.789,3.021,8.761,3.021c5.91,0,10.571-4.18,10.571-9.434
		c0-5.455-4.661-9.751-10.571-9.751c-5.619,0-11.188,3.082-11.188,9.886v20.946c0,3.497-2.952,6.313-6.479,6.313V29.225
		c0-9.423,7.422-16.352,17.666-16.352c4.501,0,8.747,1.667,11.985,4.643c3.225,3.024,5.045,7.137,5.045,11.575
		C165.434,37.979,157.969,44.988,148.404,44.988z" />
    <path fill="#FFFFFF" d="M194.521,6.806h-13.832v38.256h-0.293c-3.443,0-6.176-2.979-6.176-6.468V6.806h-13.867
		c-3.489,0-6.307-2.898-6.307-6.394h46.867C200.914,3.908,198.074,6.806,194.521,6.806z" />
    <path fill="#FFFFFF" d="M249.87,40.999l-3.426-7.381h-22.955l-3.398,7.579c-1.605,3.054-5.863,3.956-9.129,3.956l18.722-41.046
		c1.051-2.329,2.959-3.695,5.126-3.695c2.165,0,4.133,1.366,5.178,3.695L258.5,44.66C255.014,44.988,251.227,43.948,249.87,40.999z
		 M235.519,7.092l-9.178,20.185h17.336l-9.231-20.269L235.519,7.092z" />
    <path fill="#FFFFFF" d="M38.786,12.465C35.282,8.761,30.154,6.34,24.504,6.34c-10.033,0-18.196,7.27-18.196,16.221
		c0,8.977,8.164,16.299,18.196,16.299c4.783,0,9.297-1.823,12.73-4.707c2.357-1.949,5.869-1.832,8.128,0.15
		c-1.735,2.676-4.084,5.014-6.981,6.846c-4.101,2.625-8.897,3.979-13.878,3.979C10.96,45.128,0,35.013,0,22.562
		C0,10.104,10.96,0,24.504,0c9.62,0,18.385,5.256,22.289,13.332C44.312,14.951,40.877,14.747,38.786,12.465z" />
    <g>
      <path fill="#FFFFFF" d="M260.945,42.6c-1.867,0-3.403-1.381-3.403-3.064c0-1.679,1.536-3.058,3.403-3.058
			c1.88,0,3.403,1.379,3.403,3.058C264.348,41.219,262.825,42.6,260.945,42.6z M260.945,37.182c-1.482,0-2.69,1.052-2.69,2.354
			c0,1.305,1.208,2.379,2.69,2.379c1.479,0,2.711-1.074,2.711-2.379C263.656,38.233,262.423,37.182,260.945,37.182z M262.181,39.823
			c-0.075,0.057-0.186,0.095-0.293,0.137c0,0,0.204,0.246,0.849,1.012l-0.125,0.104c-0.272,0.239-0.689,0.192-0.908-0.063
			c-0.703-0.862-0.786-0.943-0.786-0.943s-0.102,0-0.825,0v-0.246c0.04-0.297,0.321-0.572,0.635-0.572h0.408
			c0.266,0,0.502-0.044,0.643-0.137c0.126-0.042,0.145-0.14,0.145-0.273c0-0.076,0-0.362-0.787-0.362c-0.955,0-1.12,0-1.12,0
			s0,0.166,0,2.11c0,0.348-0.273,0.63-0.661,0.63h-0.157v-2.953c0.036-0.329,0.299-0.587,0.63-0.601h1.309
			c1.462,0,1.602,0.834,1.602,1.176C262.737,39.276,262.539,39.611,262.181,39.823z" />
    </g>
    <path fill="#FFFFFF" d="M202.974,0.424v38.377c0,3.44,2.965,6.262,6.472,6.262V6.684C209.446,3.24,206.463,0.424,202.974,0.424z" />
  </g>
</svg>