<?xml version="1.0" encoding="utf-8"?>
<!-- Generator: Adobe Illustrator 23.0.2, SVG Export Plug-In . SVG Version: 6.00 Build 0)  -->
<svg version="1.1" id="Layer_1" xmlns="http://www.w3.org/2000/svg" xmlns:xlink="http://www.w3.org/1999/xlink" x="0px" y="0px" viewBox="0 0 288 288" style="enable-background:new 0 0 288 288;" xml:space="preserve">
  <style type="text/css">
	.st0{fill:#FFFFFF;}
	.st1{fill:#6A747C;}
	.st2{fill:#E2231A;}
	.st3{fill:#E1251B;}
</style>
  <g>
    <g>
      <g>
        <path class="st0" d="M145.2,49.4c-52.6,0-95.4,42.8-95.4,95.4c0,26.5,10.6,51.1,29.8,69.3l1,1l1.1-1c2.8-2.6,5.7-4.9,8.7-7.1
				c14.6,12.9,33.8,20.8,54.8,20.8s40.2-7.8,54.8-20.7c3,2.2,5.9,4.5,8.7,7.1l1.1,1l1-1c19.3-18.2,29.9-42.9,29.9-69.3
				C240.6,92.2,197.8,49.4,145.2,49.4z" />
        <path class="st1" d="M145.2,49.4c-52.6,0-95.4,42.8-95.4,95.4c0,26.5,10.6,51.1,29.8,69.3l1,1l1.1-1c2.8-2.6,5.7-4.9,8.7-7.1
				c14.6,12.9,33.8,20.8,54.8,20.8s40.2-7.8,54.8-20.7c3,2.2,5.9,4.5,8.7,7.1l1.1,1l1-1c19.3-18.2,29.9-42.9,29.9-69.3
				C240.6,92.2,197.8,49.4,145.2,49.4z M145.2,224.7c-20,0-38.2-7.4-52.2-19.5c11.6-7.8,24.9-12.9,38.8-14.9
				c-1.6,2.4-2.6,5.1-2.7,8.1h-2.4c-1.2,0-2.4,0.6-3.1,1.6c-0.8,1-1,2.2-0.7,3.4l4,14.6H140v-3.6c1.6,0.5,3.3,0.9,5.1,0.9
				s3.5-0.3,5.1-0.9v3.6h13.1l4-14.6c0.3-1.2,0.1-2.5-0.7-3.4s-1.9-1.6-3.1-1.6H161c-0.1-3-1.1-5.8-2.7-8.2c14,2,27.3,7.1,39,14.9
				C183.3,217.3,165.1,224.7,145.2,224.7z M145,183.2c-2.7,0-5.2,0.7-7.4,1.8c-0.3-0.8-0.4-1.7-0.4-2.6c0-4.3,3.5-7.9,7.9-7.9
				c4.3,0,7.9,3.5,7.9,7.9c0,0.9-0.2,1.8-0.4,2.6C150.2,183.9,147.7,183.2,145,183.2z M150.9,187.7c-1.4,1.6-3.5,2.6-5.8,2.6
				s-4.4-1-5.8-2.6c1.8-0.9,3.7-1.4,5.8-1.4C147.1,186.3,149.1,186.8,150.9,187.7z M145,193.4c3.4,0,6.4-1.6,8.4-4
				c2.6,2.2,4.3,5.4,4.5,9h-7.8v12.7c-1.6,0.7-3.3,1.1-5.1,1.1s-3.6-0.4-5.1-1.1v-12.7h-7.8c0.2-3.6,1.9-6.8,4.5-9
				C138.6,191.8,141.6,193.4,145,193.4z M160.9,201.5h2.6c0.4,0,0.6,0.2,0.7,0.3s0.2,0.4,0.1,0.8l-3.4,12.3h-7.6v-2
				C157.3,210.6,160.2,206.4,160.9,201.5z M153.3,209.3v-7.7h4.5C157.2,204.6,155.6,207.3,153.3,209.3z M132.3,201.5h4.5v7.7
				C134.5,207.3,132.8,204.6,132.3,201.5z M136.8,213v2h-7.6l-3.4-12.3c-0.1-0.4,0-0.6,0.1-0.8c0.1-0.1,0.3-0.3,0.7-0.3h2.6
				C129.9,206.4,132.7,210.6,136.8,213z M199.7,203.1c-13.2-9.1-28.5-14.7-44.6-16.3l0,0c0.6-1.3,0.9-2.8,0.9-4.3
				c0-6-4.9-10.9-10.9-10.9s-10.9,4.9-10.9,10.9c0,1.5,0.3,3,0.9,4.3c0,0,0,0-0.1,0.1c-16,1.7-31.2,7.3-44.4,16.3
				c-15.6-14.6-25.3-35.3-25.3-58.3c0-44.1,35.8-79.9,79.9-79.9s79.9,35.8,79.9,79.9C225.1,167.8,215.3,188.5,199.7,203.1z
				 M209.6,210.9c-2.4-2.1-4.8-4.1-7.4-6c15.9-15.1,25.9-36.5,25.9-60.1c0-45.8-37.2-83-83-83s-83,37.2-83,83
				c0,23.6,9.9,44.9,25.8,60.1c-2.5,1.9-5,3.9-7.4,6c-17.9-17.5-27.8-40.9-27.8-66.1c0-50.9,41.4-92.4,92.4-92.4
				s92.4,41.4,92.4,92.4C237.5,169.9,227.6,193.3,209.6,210.9z" />
        <g>
          <g>
            <path class="st2" d="M121.3,91.4c-2.2,0-4,1.5-4,3.4s1.8,3.4,4,3.4s4-1.5,4-3.4S123.5,91.4,121.3,91.4 M121.3,100.5
						c-3.5,0-6.3-2.5-6.3-5.7s2.8-5.7,6.3-5.7s6.3,2.5,6.3,5.7C127.6,98,124.8,100.5,121.3,100.5" />
            <path class="st2" d="M143.8,100.5c-1.3,0-2.3-1-2.3-2.3v-4.7c0-1.1-1-2-2.2-2s-2.2,0.9-2.2,2v7c-1.3,0-2.3-1-2.3-2.3v-4.8
						c0-1.1-1-2-2.2-2s-2.2,0.9-2.2,2v4.7c0,1.3-1,2.3-2.3,2.3v-7c0-2.4,2-4.3,4.5-4.3c1.3,0,2.5,0.5,3.3,1.4c0.8-0.9,2-1.4,3.3-1.4
						c2.5,0,4.5,1.9,4.5,4.3L143.8,100.5z" />
            <path class="st2" d="M151.2,100.5c-0.6,0-1.2,0-1.7-0.2c-1.2-0.3-1.9-1.6-1.6-2.8c0-0.1,0.1-0.3,0.1-0.4l0,0
						c0.6,0.7,1.7,1.1,3.1,1.1c2.1,0,3.7-1.5,3.7-3.3c0-1.9-1.6-3.5-3.7-3.5c-2,0-4,1.1-4,3.5v7.4c0,1.2-1,2.2-2.3,2.2v-9.6
						c0-3.3,2.6-5.8,6.2-5.8c1.6,0,3.1,0.6,4.2,1.6c1.1,1.1,1.8,2.5,1.8,4.1C157.2,98,154.6,100.5,151.2,100.5" />
            <path class="st2" d="M167.5,87h-4.9v13.5h-0.1c-1.2,0-2.2-1-2.2-2.3V87h-4.9c-1.2,0-2.2-1-2.2-2.3h16.6
						C169.7,85.9,168.7,87,167.5,87" />
            <path class="st2" d="M182,87.1l-3.2,7.1h6.1l-3.3-7.2L182,87.1z M187,99.1l-1.2-2.6h-8.1l-1.2,2.7c-0.6,1.1-2.1,1.4-3.2,1.4
						l6.6-14.5c0.4-0.8,1-1.3,1.8-1.3s1.5,0.5,1.8,1.3l6.5,14.3C188.9,100.5,187.5,100.1,187,99.1" />
            <path class="st2" d="M112.4,89c-1.2-1.3-3-2.2-5-2.2c-3.5,0-6.4,2.6-6.4,5.7c0,3.2,2.9,5.8,6.4,5.8c1.7,0,3.3-0.6,4.5-1.7
						c0.8-0.7,2.1-0.6,2.9,0c-0.6,1-1.5,1.8-2.5,2.4c-1.5,0.9-3.1,1.4-4.9,1.4c-4.8,0-8.7-3.6-8.7-8s3.9-8,8.7-8
						c3.4,0,6.5,1.9,7.9,4.7C114.4,89.9,113.2,89.8,112.4,89" />
            <path class="st2" d="M191.4,98.6h-0.1c0,0,0.1,0.1,0.3,0.4l0,0c-0.1,0.1-0.2,0.1-0.3,0c-0.3-0.3-0.3-0.3-0.3-0.3h-0.3v-0.1
						c0-0.1,0.1-0.2,0.2-0.2h0.1c0.1,0,0.2,0,0.2,0s0.1,0,0.1-0.1c0,0,0-0.1-0.3-0.1h-0.4V99c0,0.1-0.1,0.2-0.2,0.2h-0.1v-1
						c0-0.1,0.1-0.2,0.2-0.2h0.5c0.5,0,0.6,0.3,0.6,0.4C191.6,98.4,191.5,98.6,191.4,98.6 M190.9,97.7c-0.5,0-0.9,0.4-0.9,0.8
						c0,0.5,0.4,0.8,0.9,0.8s1-0.4,1-0.8S191.5,97.7,190.9,97.7 M190.9,99.6c-0.7,0-1.2-0.5-1.2-1.1s0.5-1.1,1.2-1.1
						s1.2,0.5,1.2,1.1C192.1,99.1,191.6,99.6,190.9,99.6" />
            <path class="st2" d="M170.5,84.7v13.6c0,1.2,1,2.2,2.3,2.2V86.9C172.7,85.7,171.7,84.7,170.5,84.7" />
          </g>
          <path class="st2" d="M243.5,110.7H37.6v49.9c0,4.6,3.8,8.4,8.4,8.4h205.9v-49.9C251.8,114.5,248.1,110.7,243.5,110.7z" />
        </g>
        <g>
          <path class="st0" d="M92.1,119h4.5v21.7h13.6v4.1H92.1V119z" />
          <path class="st0" d="M113.1,122.3v-4.2h4.8v4.2H113.1z M113.3,144.8v-19.5h4.5v19.5H113.3z" />
          <path class="st0" d="M126.8,144.8h-4.5v-19.5h4.5v3c1.3-1.8,3.1-3.4,6.1-3.4c4.4,0,6.9,3,6.9,7.5v12.4h-4.5v-11.1
					c0-3-1.5-4.8-4.2-4.8c-2.6,0-4.4,1.8-4.4,4.8L126.8,144.8L126.8,144.8z" />
          <path class="st0" d="M157.1,125.3h4.5v19.5h-4.5v-3c-1.3,1.8-3.1,3.4-6.1,3.4c-4.4,0-6.9-3-6.9-7.5v-12.4h4.5v11.1
					c0,3,1.5,4.8,4.2,4.8c2.6,0,4.4-1.8,4.4-4.8L157.1,125.3L157.1,125.3z" />
          <path class="st0" d="M183.4,144.8h-4.9l-4.8-6.8l-4.8,6.8h-4.8l7.2-9.9l-6.9-9.6h4.9l4.5,6.4l4.5-6.4h4.8l-6.9,9.5L183.4,144.8z
					" />
          <path class="st0" d="M191.4,122.7h4.2v7.1h7.1v4.1h-7.1v7.1h-4.2v-7.1h-7.1v-4.1h7.1V122.7z" />
        </g>
        <g>
          <path class="st0" d="M94.5,157.9h-1.7v2.8h-1.5V152h3.4c2,0,3.3,1.1,3.3,2.9C98,156.8,96.4,157.9,94.5,157.9z M94.6,153.4h-1.8
					v3.1h1.8c1.1,0,1.9-0.6,1.9-1.6S95.7,153.4,94.6,153.4z" />
          <path class="st0" d="M103.6,160.8c-2.6,0-4.5-2-4.5-4.4s1.9-4.5,4.5-4.5s4.5,2,4.5,4.4S106.3,160.8,103.6,160.8z M103.6,153.2
					c-1.7,0-2.9,1.4-2.9,3.1c0,1.7,1.2,3.1,2.9,3.1c1.7,0,2.9-1.4,2.9-3.1C106.5,154.6,105.3,153.2,103.6,153.2z" />
          <path class="st0" d="M114.6,152h1.3l2.1,6.4l2.1-6.4h1.6l-3,8.7h-1.3l-2.1-6.2l-2.1,6.2h-1.3l-3-8.7h1.6l2.1,6.4L114.6,152z" />
          <path class="st0" d="M129.4,153.4h-4.9v2.2h4.3v1.4h-4.3v2.3h4.9v1.4H123V152h6.4V153.4z" />
          <path class="st0" d="M136.8,160.6l-2.1-3h-1.9v3h-1.5V152h3.8c2,0,3.2,1,3.2,2.7c0,1.4-0.8,2.3-2.1,2.6l2.3,3.3H136.8z
					 M135,153.4h-2.2v2.9h2.2c1.1,0,1.8-0.6,1.8-1.5S136.1,153.4,135,153.4z" />
          <path class="st0" d="M146.5,153.4h-4.9v2.2h4.3v1.4h-4.3v2.3h4.9v1.4H140V152h6.4v1.4H146.5z" />
          <path class="st0" d="M151.6,160.6h-3.2V152h3.2c2.7,0,4.6,1.9,4.6,4.3C156.2,158.7,154.3,160.6,151.6,160.6z M151.6,153.4h-1.7
					v5.9h1.7c1.8,0,3-1.2,3-2.9C154.6,154.6,153.4,153.4,151.6,153.4z" />
          <path class="st0" d="M167.8,154.2c0,1.1-0.6,1.6-1.2,1.9c1,0.3,1.7,0.9,1.7,2.1c0,1.6-1.3,2.4-3.2,2.4h-4V152h3.9
					C166.7,152,167.8,152.9,167.8,154.2z M166.2,154.5c0-0.7-0.5-1.1-1.5-1.1h-2.2v2.3h2.1C165.6,155.6,166.2,155.3,166.2,154.5z
					 M166.7,158.1c0-0.7-0.6-1.2-1.8-1.2h-2.4v2.4h2.5C166.1,159.3,166.7,158.9,166.7,158.1z" />
          <path class="st0" d="M173.5,160.6H172v-3.4l-3.4-5.2h1.8l2.4,3.8l2.4-3.8h1.7l-3.4,5.2V160.6z" />
          <path class="st0" d="M181.4,152h1.5v7.2h4.5v1.4h-6V152z" />
          <path class="st0" d="M192,157.9h-1.7v2.8h-1.5V152h3.4c2,0,3.3,1.1,3.3,2.9C195.5,156.8,193.9,157.9,192,157.9z M192.1,153.4
					h-1.8v3.1h1.8c1.1,0,1.9-0.6,1.9-1.6C193.9,153.9,193.2,153.4,192.1,153.4z" />
          <path class="st0" d="M198.5,152v8.6H197V152H198.5z" />
        </g>
      </g>
    </g>
    <path class="st1" d="M210,208.5h-0.1c0,0,0.1,0.1,0.3,0.4l0,0c-0.1,0.1-0.2,0.1-0.3,0c-0.3-0.3-0.3-0.3-0.3-0.3h-0.3v-0.1
		c0-0.1,0.1-0.2,0.2-0.2h0.1c0.1,0,0.2,0,0.2,0s0.1,0,0.1-0.1c0,0,0-0.1-0.3-0.1h-0.4v0.8c0,0.1-0.1,0.2-0.2,0.2h-0.1v-1
		c0-0.1,0.1-0.2,0.2-0.2h0.5c0.5,0,0.6,0.3,0.6,0.4C210.2,208.4,210.1,208.5,210,208.5 M209.5,207.6c-0.5,0-0.9,0.4-0.9,0.8
		c0,0.5,0.4,0.8,0.9,0.8s1-0.4,1-0.8S210,207.6,209.5,207.6 M209.5,209.5c-0.7,0-1.2-0.5-1.2-1.1s0.5-1.1,1.2-1.1s1.2,0.5,1.2,1.1
		S210.2,209.5,209.5,209.5" />
  </g>
  <g>
    <g>
      <g>
        <path class="st0" d="M145.2,49.4c-52.6,0-95.4,42.8-95.4,95.4c0,26.5,10.6,51.1,29.8,69.3l1,1l1.1-1c2.8-2.6,5.7-4.9,8.7-7.1
				c14.6,12.9,33.8,20.8,54.8,20.8c21,0,40.2-7.8,54.8-20.7c3,2.2,5.9,4.5,8.7,7.1l1.1,1l1-1c19.3-18.2,29.9-42.9,29.9-69.3
				C240.6,92.2,197.8,49.4,145.2,49.4z" />
        <path class="st1" d="M145.2,49.4c-52.6,0-95.4,42.8-95.4,95.4c0,26.5,10.6,51.1,29.8,69.3l1,1l1.1-1c2.8-2.6,5.7-4.9,8.7-7.1
				c14.6,12.9,33.8,20.8,54.8,20.8c21,0,40.2-7.8,54.8-20.7c3,2.2,5.9,4.5,8.7,7.1l1.1,1l1-1c19.3-18.2,29.9-42.9,29.9-69.3
				C240.6,92.2,197.8,49.4,145.2,49.4z M145.2,224.7c-20,0-38.2-7.4-52.2-19.5c11.6-7.8,24.9-12.9,38.8-14.9
				c-1.6,2.4-2.6,5.1-2.7,8.1h-2.4c-1.2,0-2.4,0.6-3.1,1.6c-0.8,1-1,2.2-0.7,3.4l4,14.6h13.1v-3.6c1.6,0.5,3.3,0.9,5.1,0.9
				c1.8,0,3.5-0.3,5.1-0.9v3.6h13.1l4-14.6c0.3-1.2,0.1-2.5-0.7-3.4s-1.9-1.6-3.1-1.6h-2.4c-0.1-3-1.1-5.8-2.7-8.2
				c14,2,27.3,7.1,39,14.9C183.4,217.4,165.2,224.7,145.2,224.7z M145.1,183.2c-2.7,0-5.2,0.7-7.4,1.8c-0.3-0.8-0.4-1.7-0.4-2.6
				c0-4.3,3.5-7.9,7.9-7.9c4.3,0,7.9,3.5,7.9,7.9c0,0.9-0.2,1.8-0.4,2.6C150.3,183.9,147.8,183.2,145.1,183.2z M150.9,187.7
				c-1.4,1.6-3.5,2.6-5.8,2.6c-2.3,0-4.4-1-5.8-2.6c1.8-0.9,3.7-1.4,5.8-1.4C147.2,186.3,149.2,186.8,150.9,187.7z M145.1,193.4
				c3.4,0,6.4-1.6,8.4-4c2.6,2.2,4.3,5.4,4.5,9h-7.8v12.7c-1.6,0.7-3.3,1.1-5.1,1.1c-1.8,0-3.6-0.4-5.1-1.1v-12.7h-7.8
				c0.2-3.6,1.9-6.8,4.5-9C138.7,191.8,141.7,193.4,145.1,193.4z M160.9,201.5h2.6c0.4,0,0.6,0.2,0.7,0.3s0.2,0.4,0.1,0.8l-3.4,12.3
				h-7.6v-2C157.4,210.6,160.2,206.4,160.9,201.5z M153.3,209.3v-7.7h4.5C157.3,204.6,155.6,207.4,153.3,209.3z M132.3,201.5h4.5
				v7.7C134.5,207.4,132.9,204.6,132.3,201.5z M136.9,213v2h-7.6l-3.4-12.3c-0.1-0.4,0-0.6,0.1-0.8s0.3-0.3,0.7-0.3h2.6
				C129.9,206.4,132.8,210.6,136.9,213z M199.8,203.1c-13.2-9.1-28.5-14.7-44.6-16.3c0,0,0,0,0,0c0.6-1.3,0.9-2.8,0.9-4.3
				c0-6-4.9-10.9-10.9-10.9c-6,0-10.9,4.9-10.9,10.9c0,1.5,0.3,3,0.9,4.3c0,0,0,0-0.1,0.1c-16,1.7-31.2,7.3-44.4,16.3
				c-15.6-14.6-25.3-35.3-25.3-58.3c0-44.1,35.8-79.9,79.9-79.9s79.9,35.8,79.9,79.9C225.1,167.8,215.4,188.5,199.8,203.1z
				 M209.7,210.9c-2.4-2.1-4.8-4.1-7.4-6c15.9-15.1,25.9-36.5,25.9-60.1c0-45.8-37.2-83-83-83c-45.8,0-83,37.2-83,83
				c0,23.6,9.9,44.9,25.8,60.1c-2.5,1.9-5,3.9-7.4,6c-17.9-17.5-27.8-40.9-27.8-66.1c0-50.9,41.4-92.4,92.4-92.4
				s92.4,41.4,92.4,92.4C237.6,169.9,227.7,193.3,209.7,210.9z" />
        <g>
          <path class="st3" d="M121.3,91.4c-2.2,0-4,1.5-4,3.4c0,1.9,1.8,3.4,4,3.4c2.2,0,4-1.5,4-3.4C125.3,92.9,123.6,91.4,121.3,91.4
					 M121.3,100.5c-3.5,0-6.3-2.5-6.3-5.7c0-3.2,2.8-5.7,6.3-5.7c3.5,0,6.3,2.5,6.3,5.7C127.6,98,124.9,100.5,121.3,100.5" />
          <path class="st3" d="M143.8,100.5c-1.3,0-2.3-1-2.3-2.3l0-4.7c0-1.1-1-2-2.2-2c-1.2,0-2.2,0.9-2.2,2l0,7c-1.3,0-2.3-1-2.3-2.3
					v-4.8c0-1.1-1-2-2.2-2c-1.2,0-2.2,0.9-2.2,2l0,4.7c0,1.3-1,2.3-2.3,2.3l0-7c0-2.4,2-4.3,4.5-4.3c1.3,0,2.5,0.5,3.3,1.4
					c0.8-0.9,2-1.4,3.3-1.4c2.5,0,4.5,1.9,4.5,4.3L143.8,100.5z" />
          <path class="st3" d="M151.2,100.5c-0.6,0-1.2,0-1.7-0.2c-1.2-0.3-1.9-1.6-1.6-2.8c0-0.1,0.1-0.3,0.1-0.4l0,0
					c0.6,0.7,1.7,1.1,3.1,1.1c2.1,0,3.7-1.5,3.7-3.3c0-1.9-1.6-3.5-3.7-3.5c-2,0-4,1.1-4,3.5l0,7.4c0,1.2-1,2.2-2.3,2.2l0-9.6
					c0-3.3,2.6-5.8,6.2-5.8c1.6,0,3.1,0.6,4.2,1.6c1.1,1.1,1.8,2.5,1.8,4.1C157.3,98,154.6,100.5,151.2,100.5" />
          <path class="st3" d="M167.5,87l-4.9,0l0,13.5h-0.1c-1.2,0-2.2-1-2.2-2.3l0-11.2l-4.9,0c-1.2,0-2.2-1-2.2-2.3l16.6,0
					C169.8,86,168.8,87,167.5,87" />
          <path class="st3" d="M182,87.1l-3.2,7.1l6.1,0l-3.3-7.2L182,87.1z M187.1,99.1l-1.2-2.6l-8.1,0l-1.2,2.7
					c-0.6,1.1-2.1,1.4-3.2,1.4L180,86c0.4-0.8,1-1.3,1.8-1.3c0.8,0,1.5,0.5,1.8,1.3l6.5,14.3C188.9,100.5,187.6,100.1,187.1,99.1" />
          <path class="st3" d="M112.5,89c-1.2-1.3-3-2.2-5-2.2c-3.5,0-6.4,2.6-6.4,5.7c0,3.2,2.9,5.8,6.4,5.8c1.7,0,3.3-0.6,4.5-1.7
					c0.8-0.7,2.1-0.6,2.9,0c-0.6,1-1.5,1.8-2.5,2.4c-1.5,0.9-3.1,1.4-4.9,1.4c-4.8,0-8.7-3.6-8.7-8c0-4.4,3.9-8,8.7-8
					c3.4,0,6.5,1.9,7.9,4.7C114.4,89.9,113.2,89.8,112.5,89" />
          <path class="st3" d="M191.4,98.7c0,0-0.1,0-0.1,0c0,0,0.1,0.1,0.3,0.4l0,0c-0.1,0.1-0.2,0.1-0.3,0c-0.3-0.3-0.3-0.3-0.3-0.3
					h-0.3v-0.1c0-0.1,0.1-0.2,0.2-0.2h0.1c0.1,0,0.2,0,0.2,0c0,0,0.1,0,0.1-0.1c0,0,0-0.1-0.3-0.1h-0.4v0.8c0,0.1-0.1,0.2-0.2,0.2
					h-0.1v-1c0-0.1,0.1-0.2,0.2-0.2h0.5c0.5,0,0.6,0.3,0.6,0.4C191.6,98.5,191.6,98.6,191.4,98.7 M191,97.7c-0.5,0-0.9,0.4-0.9,0.8
					c0,0.5,0.4,0.8,0.9,0.8c0.5,0,1-0.4,1-0.8C192,98.1,191.5,97.7,191,97.7 M191,99.6c-0.7,0-1.2-0.5-1.2-1.1
					c0-0.6,0.5-1.1,1.2-1.1c0.7,0,1.2,0.5,1.2,1.1C192.2,99.2,191.7,99.6,191,99.6" />
          <path class="st3" d="M170.5,84.7l0,13.6c0,1.2,1,2.2,2.3,2.2l0-13.6C172.8,85.7,171.7,84.7,170.5,84.7" />
        </g>
        <path class="st3" d="M243.5,110.7H37.6v49.9c0,4.6,3.8,8.4,8.4,8.4h205.9v-49.9C251.9,114.5,248.1,110.7,243.5,110.7z" />
        <g>
          <path class="st0" d="M81,125.2h5.2v25h15.7v4.8H81V125.2z" />
          <path class="st0" d="M105.2,129.1v-4.9h5.5v4.9H105.2z M105.4,155v-22.5h5.1V155H105.4z" />
          <path class="st0" d="M121.1,155h-5.1v-22.5h5.1v3.5c1.4-2.1,3.5-4,7-4c5.1,0,8,3.4,8,8.6V155h-5.1v-12.8c0-3.5-1.7-5.5-4.8-5.5
					c-3,0-5.1,2.1-5.1,5.6V155z" />
          <path class="st0" d="M155.9,132.6h5.1V155h-5.1v-3.5c-1.4,2.1-3.5,4-7,4c-5.1,0-8-3.4-8-8.6v-14.3h5.1v12.8
					c0,3.5,1.7,5.5,4.8,5.5c3,0,5.1-2.1,5.1-5.6V132.6z" />
          <path class="st0" d="M186.2,155h-5.6l-5.5-7.9l-5.5,7.9h-5.5l8.3-11.4l-8-11.1h5.6l5.2,7.4l5.2-7.4h5.5l-8,10.9L186.2,155z" />
          <path class="st0" d="M195.5,129.6h4.9v8.1h8.2v4.7h-8.2v8.1h-4.9v-8.1h-8.2v-4.7h8.2V129.6z" />
        </g>
      </g>
    </g>
    <path class="st1" d="M210,208.6c0,0-0.1,0-0.1,0c0,0,0.1,0.1,0.3,0.4l0,0c-0.1,0.1-0.2,0.1-0.3,0c-0.3-0.3-0.3-0.3-0.3-0.3h-0.3
		v-0.1c0-0.1,0.1-0.2,0.2-0.2h0.1c0.1,0,0.2,0,0.2,0c0,0,0.1,0,0.1-0.1c0,0,0-0.1-0.3-0.1h-0.4v0.8c0,0.1-0.1,0.2-0.2,0.2H209l0-1
		c0-0.1,0.1-0.2,0.2-0.2h0.5c0.5,0,0.6,0.3,0.6,0.4C210.2,208.4,210.1,208.5,210,208.6 M209.6,207.6c-0.5,0-0.9,0.4-0.9,0.8
		c0,0.5,0.4,0.8,0.9,0.8c0.5,0,1-0.4,1-0.8C210.5,208,210.1,207.6,209.6,207.6 M209.6,209.5c-0.7,0-1.2-0.5-1.2-1.1
		c0-0.6,0.5-1.1,1.2-1.1c0.7,0,1.2,0.5,1.2,1.1C210.8,209.1,210.2,209.5,209.6,209.5" />
  </g>
</svg>