<?xml version="1.0" encoding="utf-8"?>
<!-- Generator: Adobe Illustrator 22.1.0, SVG Export Plug-In . SVG Version: 6.00 Build 0)  -->
<svg version="1.1" id="Layer_1" xmlns="http://www.w3.org/2000/svg" xmlns:xlink="http://www.w3.org/1999/xlink" x="0px" y="0px" viewBox="0 0 288 288" enable-background="new 0 0 288 288" xml:space="preserve">
  <g>
    <g>
      <g>
        <path fill="#FFFFFF" d="M145.2,49.3c-52.6,0-95.4,42.8-95.4,95.4c0,26.5,10.6,51.1,29.8,69.3l1,1l1.1-1c2.8-2.6,5.7-4.9,8.7-7.1
				c14.6,12.9,33.8,20.8,54.8,20.8c21,0,40.2-7.9,54.8-20.8c3,2.2,5.9,4.5,8.7,7.1l1.1,1l1-1c19.3-18.2,29.9-42.9,29.9-69.3
				C240.6,92.1,197.8,49.3,145.2,49.3z" />
        <path fill="#6A747C" d="M145.2,49.3c-52.6,0-95.4,42.8-95.4,95.4c0,26.5,10.6,51.1,29.8,69.3l1,1l1.1-1c2.8-2.6,5.7-4.9,8.7-7.1
				c14.6,12.9,33.8,20.8,54.8,20.8c21,0,40.2-7.9,54.8-20.8c3,2.2,5.9,4.5,8.7,7.1l1.1,1l1-1c19.3-18.2,29.9-42.9,29.9-69.3
				C240.6,92.1,197.8,49.3,145.2,49.3z M145.2,224.6c-20,0-38.2-7.4-52.2-19.5c9.6-6.4,20.3-11,31.5-13.5l-6.1,7.9
				c-0.7,0.9-0.9,2.2-0.3,3.3c0.5,1.1,1.6,1.7,2.8,1.7h48.4c1.2,0,2.3-0.7,2.8-1.7c0.5-1.1,0.4-2.3-0.3-3.3l-6.2-8
				c11.4,2.5,22.2,7.1,31.9,13.6C183.3,217.3,165.1,224.6,145.2,224.6z M65.2,144.7c0-44.1,35.8-79.9,79.9-79.9s79.9,35.8,79.9,79.9
				c0,23-9.8,43.7-25.3,58.3c-11.2-7.6-23.8-12.8-37.1-15.3h-4v-6.8c0-3.2-2.6-5.7-5.7-5.7h-21.6v12.5h-4
				c-13.2,2.5-25.7,7.7-36.8,15.2C75,188.4,65.2,167.7,65.2,144.7z M155.6,187.7h-21.1v-9.5h18.5c1.5,0,2.6,1.2,2.6,2.6V187.7z
				 M155.6,190.8v3.1l-21.1,0v-3.1H155.6z M158.6,197v-6.2h2.5l8.1,10.6c0,0,0,0,0,0l-48.4-0.1l8.1-10.5h2.5v6.2L158.6,197z
				 M209.6,210.8c-2.4-2.1-4.8-4.1-7.4-6c15.9-15.1,25.9-36.5,25.9-60.1c0-45.8-37.2-83-83-83s-83,37.2-83,83
				c0,23.6,9.9,44.9,25.8,60.1c-2.6,1.9-5,3.9-7.4,6c-17.9-17.5-27.8-40.9-27.8-66.1c0-50.9,41.4-92.4,92.4-92.4
				s92.4,41.4,92.4,92.4C237.5,169.8,227.6,193.2,209.6,210.8z" />
        <g>
          <path fill="#E1251B" d="M121.3,91.3c-2.2,0-4,1.5-4,3.4c0,1.9,1.8,3.4,4,3.4c2.2,0,4-1.5,4-3.4
					C125.3,92.8,123.5,91.3,121.3,91.3 M121.3,100.4c-3.5,0-6.3-2.5-6.3-5.7c0-3.2,2.8-5.7,6.3-5.7c3.5,0,6.3,2.5,6.3,5.7
					C127.6,97.9,124.8,100.4,121.3,100.4" />
          <path fill="#E1251B" d="M143.8,100.4c-1.3,0-2.3-1-2.3-2.3v-4.7c0-1.1-1-2-2.2-2c-1.2,0-2.2,0.9-2.2,2l0,7c-1.3,0-2.3-1-2.3-2.3
					l0-4.8c0-1.1-1-2-2.2-2c-1.2,0-2.2,0.9-2.2,2v4.7c0,1.3-1,2.3-2.3,2.3l0-7c0-2.4,2-4.3,4.5-4.3c1.3,0,2.5,0.5,3.3,1.4
					c0.8-0.9,2-1.4,3.3-1.4c2.5,0,4.5,1.9,4.5,4.3L143.8,100.4z" />
          <path fill="#E1251B" d="M151.2,100.4c-0.6,0-1.2,0-1.7-0.2c-1.2-0.3-1.9-1.6-1.6-2.8c0-0.1,0.1-0.3,0.1-0.4l0,0
					c0.6,0.7,1.7,1.1,3.1,1.1c2.1,0,3.7-1.5,3.7-3.3c0-1.9-1.6-3.5-3.7-3.5c-2,0-4,1.1-4,3.5l0,7.4c0,1.2-1,2.2-2.3,2.2l0-9.6
					c0-3.3,2.6-5.8,6.2-5.8c1.6,0,3.1,0.6,4.2,1.6c1.1,1.1,1.8,2.5,1.8,4.1C157.2,97.9,154.6,100.4,151.2,100.4" />
          <path fill="#E1251B" d="M167.5,86.9l-4.9,0l0,13.5h-0.1c-1.2,0-2.2-1-2.2-2.3l0-11.2l-4.9,0c-1.2,0-2.2-1-2.2-2.3l16.6,0
					C169.7,85.9,168.7,86.9,167.5,86.9" />
          <path fill="#E1251B" d="M182,87l-3.2,7.1l6.1,0l-3.3-7.2L182,87z M187,99l-1.2-2.6l-8.1,0l-1.2,2.7c-0.6,1.1-2.1,1.4-3.2,1.4
					l6.6-14.5c0.4-0.8,1-1.3,1.8-1.3c0.8,0,1.5,0.5,1.8,1.3l6.5,14.3C188.9,100.4,187.5,100,187,99" />
          <path fill="#E1251B" d="M112.4,88.9c-1.2-1.3-3-2.2-5-2.2c-3.5,0-6.4,2.6-6.4,5.7c0,3.2,2.9,5.8,6.4,5.8c1.7,0,3.3-0.6,4.5-1.7
					c0.8-0.7,2.1-0.6,2.9,0c-0.6,1-1.5,1.8-2.5,2.4c-1.5,0.9-3.1,1.4-4.9,1.4c-4.8,0-8.7-3.6-8.7-8c0-4.4,3.9-8,8.7-8
					c3.4,0,6.5,1.9,7.9,4.7C114.4,89.8,113.2,89.7,112.4,88.9" />
          <path fill="#E1251B" d="M191.4,98.5c0,0-0.1,0-0.1,0c0,0,0.1,0.1,0.3,0.4l0,0c-0.1,0.1-0.2,0.1-0.3,0c-0.3-0.3-0.3-0.3-0.3-0.3
					h-0.3v-0.1c0-0.1,0.1-0.2,0.2-0.2l0.1,0c0.1,0,0.2,0,0.2,0c0,0,0.1,0,0.1-0.1c0,0,0-0.1-0.3-0.1h-0.4l0,0.8
					c0,0.1-0.1,0.2-0.2,0.2h-0.1v-1c0-0.1,0.1-0.2,0.2-0.2h0.5c0.5,0,0.6,0.3,0.6,0.4C191.6,98.4,191.5,98.5,191.4,98.5 M190.9,97.6
					c-0.5,0-0.9,0.4-0.9,0.8c0,0.5,0.4,0.8,0.9,0.8c0.5,0,1-0.4,1-0.8C191.9,98,191.5,97.6,190.9,97.6 M190.9,99.5
					c-0.7,0-1.2-0.5-1.2-1.1c0-0.6,0.5-1.1,1.2-1.1c0.7,0,1.2,0.5,1.2,1.1C192.1,99,191.6,99.5,190.9,99.5" />
          <path fill="#E1251B" d="M170.5,84.6l0,13.6c0,1.2,1,2.2,2.3,2.2l0-13.6C172.7,85.6,171.7,84.6,170.5,84.6" />
        </g>
        <path fill="#E1251B" d="M243.5,110.6H37.6v49.9c0,4.6,3.8,8.4,8.4,8.4h205.9V119C251.8,114.4,248.1,110.6,243.5,110.6z" />
        <path fill="#6A747C" d="M210,208.5c0,0-0.1,0-0.1,0c0,0,0.1,0.1,0.3,0.4l0,0c-0.1,0.1-0.2,0.1-0.3,0c-0.3-0.3-0.3-0.3-0.3-0.3
				h-0.3v-0.1c0-0.1,0.1-0.2,0.2-0.2h0.1c0.1,0,0.2,0,0.2,0c0,0,0.1,0,0.1-0.1c0,0,0-0.1-0.3-0.1l-0.4,0v0.8c0,0.1-0.1,0.2-0.2,0.2
				h-0.1l0-1c0-0.1,0.1-0.2,0.2-0.2l0.5,0c0.5,0,0.6,0.3,0.6,0.4C210.2,208.4,210.1,208.5,210,208.5 M209.5,207.6
				c-0.5,0-0.9,0.4-0.9,0.8c0,0.5,0.4,0.8,0.9,0.8c0.5,0,1-0.4,1-0.8C210.5,208,210,207.6,209.5,207.6 M209.5,209.5
				c-0.7,0-1.2-0.5-1.2-1.1c0-0.6,0.5-1.1,1.2-1.1c0.7,0,1.2,0.5,1.2,1.1C210.7,209,210.2,209.5,209.5,209.5" />
      </g>
      <g>
        <path fill="#FFFFFF" d="M108,126h4.8v27.2H108V126z" />
        <path fill="#FFFFFF" d="M124.3,130.4h-8.6V126h22v4.4h-8.6v22.7h-4.8V130.4z" />
        <path fill="#FFFFFF" d="M140.9,126h20.2v4.3h-15.4v7.4h13.7v4.3h-13.7v11.1h-4.8V126z" />
        <path fill="#FFFFFF" d="M170.3,142.1h-7.5v-4.3h7.5v-7.4h4.4v7.4h7.5v4.3h-7.5v7.4h-4.4V142.1z" />
      </g>
    </g>
  </g>
</svg>