<?xml version="1.0" encoding="utf-8"?>
<!-- Generator: Adobe Illustrator 25.3.1, SVG Export Plug-In . SVG Version: 6.00 Build 0)  -->
<svg version="1.1" id="Layer_1" xmlns="http://www.w3.org/2000/svg" xmlns:xlink="http://www.w3.org/1999/xlink" x="0px" y="0px" viewBox="0 0 288 288" style="enable-background:new 0 0 288 288;" xml:space="preserve">
  <style type="text/css">
	.st0{fill:#FFFFFF;}
	.st1{fill:#C7202F;}
	.st2{fill:#6A747C;}
	.st3{fill:#FFFFFF;stroke:#6A747C;stroke-width:2.5444;stroke-miterlimit:10;}
	.st4{fill:#FFFFFF;stroke:#6A747C;stroke-width:2.664;stroke-miterlimit:10;}
	.st5{fill:#FFFFFF;stroke:#6A747C;stroke-width:2.7711;stroke-miterlimit:10;}
</style>
  <g>
    <path class="st0" d="M145.1,49.8c-52.6,0-95.4,42.8-95.4,95.4c0,26.5,10.6,51.1,29.8,69.3l1,1l1.1-1c2.8-2.6,5.7-4.9,8.7-7.1
		c14.6,12.9,33.8,20.8,54.8,20.8c21,0,40.2-7.9,54.8-20.8c3,2.2,5.9,4.5,8.7,7.1l1.1,1l1-1c19.3-18.2,29.9-42.9,29.9-69.3
		C240.5,92.6,197.7,49.8,145.1,49.8z" />
    <g>
      <path class="st1" d="M121.2,91.8c-2.2,0-4,1.5-4,3.4c0,1.9,1.8,3.4,4,3.4c2.2,0,4-1.5,4-3.4C125.2,93.3,123.5,91.8,121.2,91.8
			 M121.2,100.9c-3.5,0-6.3-2.5-6.3-5.7c0-3.2,2.8-5.7,6.3-5.7c3.5,0,6.3,2.5,6.3,5.7C127.5,98.4,124.8,100.9,121.2,100.9" />
      <path class="st1" d="M143.7,100.9c-1.3,0-2.3-1-2.3-2.3l0-4.7c0-1.1-1-2-2.2-2c-1.2,0-2.2,0.9-2.2,2l0,7c-1.3,0-2.3-1-2.3-2.3
			l0-4.8c0-1.1-1-2-2.2-2c-1.2,0-2.2,0.9-2.2,2l0,4.7c0,1.3-1,2.3-2.3,2.3l0-7c0-2.4,2-4.3,4.5-4.3c1.3,0,2.5,0.5,3.3,1.4
			c0.8-0.9,2-1.4,3.3-1.4c2.5,0,4.5,1.9,4.5,4.3L143.7,100.9z" />
      <path class="st1" d="M151.1,100.9c-0.6,0-1.2,0-1.7-0.2c-1.2-0.3-1.9-1.6-1.6-2.8c0-0.1,0.1-0.3,0.1-0.4l0,0
			c0.6,0.7,1.7,1.1,3.1,1.1c2.1,0,3.7-1.5,3.7-3.3c0-1.9-1.6-3.5-3.7-3.5c-2,0-4,1.1-4,3.5l0,7.4c0,1.2-1,2.2-2.3,2.2l0-9.6
			c0-3.3,2.6-5.8,6.2-5.8c1.6,0,3.1,0.6,4.2,1.6c1.1,1.1,1.8,2.5,1.8,4.1C157.1,98.4,154.5,100.9,151.1,100.9" />
      <path class="st1" d="M167.4,87.4l-4.9,0l0,13.5h-0.1c-1.2,0-2.2-1-2.2-2.3l0-11.2l-4.9,0c-1.2,0-2.2-1-2.2-2.3l16.6,0
			C169.7,86.4,168.7,87.4,167.4,87.4" />
      <path class="st1" d="M181.9,87.5l-3.2,7.1l6.1,0l-3.3-7.2L181.9,87.5z M187,99.5l-1.2-2.6l-8.1,0l-1.2,2.7
			c-0.6,1.1-2.1,1.4-3.2,1.4l6.6-14.5c0.4-0.8,1-1.3,1.8-1.3c0.8,0,1.5,0.5,1.8,1.3l6.5,14.3C188.8,100.9,187.5,100.5,187,99.5" />
      <path class="st1" d="M112.4,89.4c-1.2-1.3-3-2.2-5-2.2c-3.5,0-6.4,2.6-6.4,5.7c0,3.2,2.9,5.8,6.4,5.8c1.7,0,3.3-0.6,4.5-1.7
			c0.8-0.7,2.1-0.6,2.9,0c-0.6,1-1.5,1.8-2.5,2.4c-1.5,0.9-3.1,1.4-4.9,1.4c-4.8,0-8.7-3.6-8.7-8c0-4.4,3.9-8,8.7-8
			c3.4,0,6.5,1.9,7.9,4.7C114.3,90.3,113.1,90.2,112.4,89.4" />
      <path class="st1" d="M191.3,99.1c0,0-0.1,0-0.1,0c0,0,0.1,0.1,0.3,0.4l0,0c-0.1,0.1-0.2,0.1-0.3,0c-0.3-0.3-0.3-0.3-0.3-0.3h-0.3
			v-0.1c0-0.1,0.1-0.2,0.2-0.2h0.1c0.1,0,0.2,0,0.2,0c0,0,0.1,0,0.1-0.1c0,0,0-0.1-0.3-0.1h-0.4v0.8c0,0.1-0.1,0.2-0.2,0.2h-0.1v-1
			c0-0.1,0.1-0.2,0.2-0.2h0.5c0.5,0,0.6,0.3,0.6,0.4C191.5,98.9,191.5,99,191.3,99.1 M190.9,98.1c-0.5,0-0.9,0.4-0.9,0.8
			c0,0.5,0.4,0.8,0.9,0.8c0.5,0,1-0.4,1-0.8C191.9,98.5,191.4,98.1,190.9,98.1 M190.9,100c-0.7,0-1.2-0.5-1.2-1.1
			c0-0.6,0.5-1.1,1.2-1.1c0.7,0,1.2,0.5,1.2,1.1C192.1,99.6,191.6,100,190.9,100" />
      <path class="st1" d="M170.4,85.1l0,13.6c0,1.2,1,2.2,2.3,2.2l0-13.6C172.7,86.1,171.6,85.1,170.4,85.1" />
    </g>
    <path class="st2" d="M145.1,49.8c-52.6,0-95.4,42.8-95.4,95.4c0,26.5,10.6,51.1,29.8,69.3l1,1l1.1-1c2.8-2.6,5.7-4.9,8.7-7.1
		c14.6,12.9,33.8,20.8,54.8,20.8c21,0,40.2-7.9,54.8-20.8c3,2.2,5.9,4.5,8.7,7.1l1.1,1l1-1c19.3-18.2,29.9-42.9,29.9-69.3
		C240.5,92.6,197.7,49.8,145.1,49.8z M135.5,187.1c-16.2,1.6-31.6,7.2-45,16.3c-15.6-14.6-25.3-35.3-25.3-58.3
		c0-44.1,35.8-79.9,79.9-79.9s79.9,35.8,79.9,79.9c0,23-9.8,43.7-25.3,58.3c-13.7-9.3-29.5-15-46.1-16.4 M153.6,190.2
		c15.7,1.4,30.7,6.7,43.7,15.5c-14,12.1-32.3,19.5-52.2,19.5c-20,0-38.2-7.4-52.2-19.5c12.7-8.5,27.3-13.8,42.6-15.4 M209.6,211.3
		c-2.4-2.1-4.8-4.1-7.4-6c15.9-15.1,25.9-36.5,25.9-60.1c0-45.8-37.2-83-83-83s-83,37.2-83,83c0,23.6,9.9,45,25.8,60.1
		c-2.5,1.9-5,3.8-7.4,6c-17.9-17.5-27.8-40.9-27.8-66.1c0-50.9,41.4-92.4,92.4-92.4s92.4,41.4,92.4,92.4
		C237.5,170.3,227.6,193.7,209.6,211.3z" />
    <path class="st1" d="M243.9,111.1H38V161c0,4.6,3.8,8.4,8.4,8.4h205.9v-49.9C252.2,114.9,248.5,111.1,243.9,111.1z" />
    <path class="st2" d="M209.9,208.9c0,0-0.1,0-0.1,0c0,0,0.1,0.1,0.3,0.4l0,0c-0.1,0.1-0.2,0.1-0.3,0c-0.3-0.3-0.3-0.3-0.3-0.3h-0.3
		v-0.1c0-0.1,0.1-0.2,0.2-0.2h0.1c0.1,0,0.2,0,0.2,0c0,0,0.1,0,0.1-0.1c0,0,0-0.1-0.3-0.1h-0.4v0.8c0,0.1-0.1,0.2-0.2,0.2h-0.1v-1
		c0-0.1,0.1-0.2,0.2-0.2h0.5c0.5,0,0.6,0.3,0.6,0.4C210.1,208.7,210,208.8,209.9,208.9 M209.5,208c-0.5,0-0.9,0.4-0.9,0.8
		c0,0.5,0.4,0.8,0.9,0.8c0.5,0,1-0.4,1-0.8C210.4,208.3,210,208,209.5,208 M209.5,209.9c-0.7,0-1.2-0.5-1.2-1.1
		c0-0.6,0.5-1.1,1.2-1.1c0.7,0,1.2,0.5,1.2,1.1C210.7,209.4,210.1,209.9,209.5,209.9" />
    <g>
      <path class="st0" d="M94.8,125.7h10.1c8.5,0,14.3,5.8,14.3,13.4v0.1c0,7.6-5.9,13.5-14.3,13.5H94.8V125.7z M99.5,130v18.3h5.3
			c5.7,0,9.4-3.8,9.4-9.1v-0.1c0-5.3-3.7-9.2-9.4-9.2H99.5z" />
      <path class="st0" d="M120.5,146.8L120.5,146.8c0-4.5,3.4-6.6,8.4-6.6c2.3,0,3.9,0.3,5.5,0.8v-0.5c0-2.9-1.8-4.4-5-4.4
			c-2.3,0-4,0.5-5.8,1.3l-1.2-3.7c2.2-1,4.4-1.7,7.7-1.7c3,0,5.3,0.8,6.7,2.3c1.5,1.5,2.2,3.6,2.2,6.3v12.1h-4.5v-2.5
			c-1.4,1.7-3.5,3-6.6,3C123.9,153.1,120.5,150.9,120.5,146.8z M134.5,145.3v-1.4c-1.2-0.5-2.8-0.8-4.6-0.8c-3,0-4.8,1.3-4.8,3.4
			v0.1c0,2,1.7,3.1,4,3.1C132.1,149.7,134.5,147.9,134.5,145.3z" />
      <path class="st0" d="M143.5,147v-10.7H141v-4h2.6v-5.6h4.7v5.6h5.5v4h-5.5v10c0,1.8,0.9,2.5,2.5,2.5c1,0,2-0.2,2.9-0.7v3.8
			c-1.2,0.7-2.4,1-4.2,1C146,153,143.5,151.5,143.5,147z" />
      <path class="st0" d="M156.1,146.8L156.1,146.8c0-4.5,3.4-6.6,8.4-6.6c2.3,0,3.9,0.3,5.5,0.8v-0.5c0-2.9-1.8-4.4-5-4.4
			c-2.3,0-4,0.5-5.8,1.3l-1.2-3.7c2.2-1,4.4-1.7,7.7-1.7c3,0,5.3,0.8,6.7,2.3c1.5,1.5,2.2,3.6,2.2,6.3v12.1h-4.5v-2.5
			c-1.4,1.7-3.5,3-6.6,3C159.5,153.1,156.1,150.9,156.1,146.8z M170.1,145.3v-1.4c-1.2-0.5-2.8-0.8-4.6-0.8c-3,0-4.8,1.3-4.8,3.4
			v0.1c0,2,1.7,3.1,4,3.1C167.7,149.7,170.1,147.9,170.1,145.3z" />
      <path class="st0" d="M184.7,141.2h-7.4v-4.3h7.4v-7.3h4.4v7.3h7.4v4.3h-7.4v7.4h-4.4V141.2z" />
    </g>
    <rect x="125.4" y="184.8" class="st0" width="39.3" height="12.2" />
    <g>
      <rect x="129.6" y="189.6" class="st3" width="10.3" height="15.4" />
      <rect x="139.8" y="182.7" class="st4" width="10.3" height="22.2" />
      <rect x="150.4" y="176.1" class="st5" width="10.3" height="28.9" />
    </g>
  </g>
</svg>