<?xml version="1.0" encoding="utf-8"?>
<!-- Generator: Adobe Illustrator 21.1.0, SVG Export Plug-In . SVG Version: 6.00 Build 0)  -->
<!DOCTYPE svg PUBLIC "-//W3C//DTD SVG 1.1//EN" "http://www.w3.org/Graphics/SVG/1.1/DTD/svg11.dtd"[
	<!ENTITY ns_extend "http://ns.adobe.com/Extensibility/1.0/">
	<!ENTITY ns_ai "http://ns.adobe.com/AdobeIllustrator/10.0/">
	<!ENTITY ns_graphs "http://ns.adobe.com/Graphs/1.0/">
	<!ENTITY ns_vars "http://ns.adobe.com/Variables/1.0/">
	<!ENTITY ns_imrep "http://ns.adobe.com/ImageReplacement/1.0/">
	<!ENTITY ns_sfw "http://ns.adobe.com/SaveForWeb/1.0/">
	<!ENTITY ns_custom "http://ns.adobe.com/GenericCustomNamespace/1.0/">
	<!ENTITY ns_adobe_xpath "http://ns.adobe.com/XPath/1.0/">
]>
<svg version="1.1" id="Layer_2" xmlns:x="&ns_extend;" xmlns:i="&ns_ai;" xmlns:graph="&ns_graphs;" xmlns="http://www.w3.org/2000/svg" xmlns:xlink="http://www.w3.org/1999/xlink" x="0px" y="0px" viewBox="0 0 288 288" style="enable-background:new 0 0 288 288;" xml:space="preserve">
  <style type="text/css">
	.st0{fill:#FFFFFF;}
	.st1{fill:#E2231A;}
	.st2{fill:#6A747C;}
</style>
  <switch>
    <g>
      <g>
        <g>
          <g>
            <g>
              <g>
                <path class="st0" d="M145.1,47.9c-52.6,0-95.4,42.8-95.4,95.4c0,26.5,10.6,51.1,29.8,69.3l1,1l1.1-1c2.8-2.6,5.7-4.9,8.7-7.1
								c14.6,12.9,33.8,20.8,54.8,20.8c21,0,40.2-7.9,54.8-20.8c3,2.2,5.9,4.5,8.7,7.1l1.1,1l1-1c19.3-18.2,29.9-42.9,29.9-69.3
								C240.5,90.7,197.7,47.9,145.1,47.9z" />
                <g>
                  <path class="st1" d="M121.2,89.9c-2.2,0-4,1.5-4,3.4c0,1.9,1.8,3.4,4,3.4s4-1.5,4-3.4C125.2,91.4,123.4,89.9,121.2,89.9
									 M121.2,99c-3.5,0-6.3-2.5-6.3-5.7c0-3.2,2.8-5.7,6.3-5.7c3.5,0,6.3,2.5,6.3,5.7C127.5,96.5,124.7,99,121.2,99" />
                  <path class="st1" d="M143.7,99c-1.3,0-2.3-1-2.3-2.3l0-4.7c0-1.1-1-2-2.2-2c-1.2,0-2.2,0.9-2.2,2l0,7c-1.3,0-2.3-1-2.3-2.3
									l0-4.8c0-1.1-1-2-2.2-2c-1.2,0-2.2,0.9-2.2,2l0,4.7c0,1.3-1,2.3-2.3,2.3l0-7c0-2.4,2-4.3,4.5-4.3c1.3,0,2.5,0.5,3.3,1.4
									c0.8-0.9,2-1.4,3.3-1.4c2.5,0,4.5,1.9,4.5,4.3L143.7,99z" />
                  <path class="st1" d="M151.1,99c-0.6,0-1.2,0-1.7-0.2c-1.2-0.3-1.9-1.6-1.6-2.8c0-0.1,0.1-0.3,0.1-0.4l0,0
									c0.6,0.7,1.7,1.1,3.1,1.1c2.1,0,3.7-1.5,3.7-3.3c0-1.9-1.6-3.5-3.7-3.5c-2,0-4,1.1-4,3.5l0,7.4c0,1.2-1,2.2-2.3,2.2l0-9.6
									c0-3.3,2.6-5.8,6.2-5.8c1.6,0,3.1,0.6,4.2,1.6c1.1,1.1,1.8,2.5,1.8,4.1C157.1,96.5,154.5,99,151.1,99" />
                  <path class="st1" d="M167.4,85.5l-4.9,0l0,13.5h-0.1c-1.2,0-2.2-1-2.2-2.3l0-11.2l-4.9,0c-1.2,0-2.2-1-2.2-2.3l16.6,0
									C169.6,84.5,168.6,85.5,167.4,85.5" />
                  <path class="st1" d="M181.9,85.6l-3.2,7.1l6.1,0l-3.3-7.2L181.9,85.6z M186.9,97.6l-1.2-2.6l-8.1,0l-1.2,2.7
									c-0.6,1.1-2.1,1.4-3.2,1.4l6.6-14.5c0.4-0.8,1-1.3,1.8-1.3c0.8,0,1.5,0.5,1.8,1.3l6.5,14.3C188.8,99,187.4,98.6,186.9,97.6" />
                  <path class="st1" d="M112.3,87.5c-1.2-1.3-3-2.2-5-2.2c-3.5,0-6.4,2.6-6.4,5.7c0,3.2,2.9,5.8,6.4,5.8c1.7,0,3.3-0.6,4.5-1.7
									c0.8-0.7,2.1-0.6,2.9,0c-0.6,1-1.5,1.8-2.5,2.4c-1.5,0.9-3.1,1.4-4.9,1.4c-4.8,0-8.7-3.6-8.7-8c0-4.4,3.9-8,8.7-8
									c3.4,0,6.5,1.9,7.9,4.7C114.3,88.4,113.1,88.3,112.3,87.5" />
                  <path class="st1" d="M191.3,97.2c0,0-0.1,0-0.1,0c0,0,0.1,0.1,0.3,0.4l0,0c-0.1,0.1-0.2,0.1-0.3,0c-0.3-0.3-0.3-0.3-0.3-0.3
									l-0.3,0v-0.1c0-0.1,0.1-0.2,0.2-0.2h0.1c0.1,0,0.2,0,0.2,0c0,0,0.1,0,0.1-0.1c0,0,0-0.1-0.3-0.1l-0.4,0v0.8
									c0,0.1-0.1,0.2-0.2,0.2h-0.1v-1c0-0.1,0.1-0.2,0.2-0.2l0.5,0c0.5,0,0.6,0.3,0.6,0.4C191.5,97,191.4,97.1,191.3,97.2
									 M190.8,96.2c-0.5,0-0.9,0.4-0.9,0.8c0,0.5,0.4,0.8,0.9,0.8c0.5,0,1-0.4,1-0.8C191.8,96.6,191.4,96.2,190.8,96.2
									 M190.8,98.1c-0.7,0-1.2-0.5-1.2-1.1c0-0.6,0.5-1.1,1.2-1.1c0.7,0,1.2,0.5,1.2,1.1C192.1,97.7,191.5,98.1,190.8,98.1" />
                  <path class="st1" d="M170.4,83.2l0,13.6c0,1.2,1,2.2,2.3,2.2l0-13.6C172.6,84.2,171.6,83.2,170.4,83.2" />
                </g>
              </g>
            </g>
          </g>
          <path class="st2" d="M209.9,207.2c0,0-0.1,0-0.1,0c0,0,0.1,0.1,0.3,0.4l0,0c-0.1,0.1-0.2,0.1-0.3,0c-0.3-0.3-0.3-0.3-0.3-0.3
					h-0.3v-0.1c0-0.1,0.1-0.2,0.2-0.2h0.1c0.1,0,0.2,0,0.2,0c0,0,0.1,0,0.1-0.1c0,0,0-0.1-0.3-0.1l-0.4,0v0.8c0,0.1-0.1,0.2-0.2,0.2
					h-0.1v-1c0-0.1,0.1-0.2,0.2-0.2l0.5,0c0.5,0,0.6,0.3,0.6,0.4C210.1,207,210,207.2,209.9,207.2 M209.5,206.3
					c-0.5,0-0.9,0.4-0.9,0.8c0,0.5,0.4,0.8,0.9,0.8c0.5,0,1-0.4,1-0.8C210.4,206.7,210,206.3,209.5,206.3 M209.5,208.2
					c-0.7,0-1.2-0.5-1.2-1.1c0-0.6,0.5-1.1,1.2-1.1c0.7,0,1.2,0.5,1.2,1.1C210.7,207.7,210.1,208.2,209.5,208.2" />
          <path class="st2" d="M145.1,47.9c-52.6,0-95.4,42.8-95.4,95.4c0,26.5,10.6,51.1,29.8,69.3l1,1l1.1-1c2.8-2.6,5.7-4.9,8.7-7.1
					c14.6,12.9,33.8,20.8,54.8,20.8c21,0,40.2-7.9,54.8-20.8c3,2.2,5.9,4.5,8.7,7.1l1.1,1l1-1c19.3-18.2,29.9-42.9,29.9-69.3
					C240.5,90.7,197.7,47.9,145.1,47.9z M145.1,223.2c-20,0-38.2-7.4-52.2-19.5c9-6.1,19-10.5,29.5-13.1l3.8-0.9v10.1
					c0,3.7,1.8,7.2,4.8,9.3l13.9,9.7l13.8-9.7c3-2.1,4.8-5.6,4.8-9.2v-10.2l3.3,0.8c10.8,2.6,21.1,7.1,30.4,13.3
					C183.2,215.9,165,223.2,145.1,223.2z M141.5,203c1.4,0.8,3,1.2,4.8,1.2c5.7,0,10.4-4.7,10.4-10.4c0-5.7-4.7-10.4-10.4-10.4
					c-5.7,0-10.4,4.7-10.4,10.4c0,2.9,1.2,5.6,3.2,7.5l-4.7,6.6l-1.3-0.9c-2.2-1.6-3.6-4.1-3.6-6.8v-19.7h4.3c4,0,7.9-1.1,11.3-3.1
					l0.1,0l0.8,0.4c3.2,1.7,6.9,2.7,10.6,2.7h4.2v19.7c0,2.7-1.3,5.2-3.5,6.8l-12.1,8.5l-8.4-5.8L141.5,203z M138.8,193.8
					c0-4.1,3.3-7.4,7.4-7.4c4.1,0,7.4,3.3,7.4,7.4c0,4.1-3.3,7.4-7.4,7.4C142.2,201.2,138.8,197.8,138.8,193.8z M199.6,201.6
					c-10-6.8-21.1-11.7-32.8-14.4l-3.3-0.7v-9.4h-7.2c-3.2,0-6.4-0.8-9.2-2.3l-2.3-1.2l-1.5,0.9c-3,1.7-6.4,2.7-9.8,2.7h-7.3v9.5
					l-3.8,0.8c-11.4,2.7-22.2,7.5-31.9,14.1c-15.6-14.6-25.3-35.3-25.3-58.3c0-44.1,35.8-79.9,79.9-79.9c44.1,0,79.9,35.8,79.9,79.9
					C225,166.3,215.2,187,199.6,201.6z M209.5,209.4c-2.4-2.1-4.8-4.1-7.4-6c15.9-15.1,25.9-36.5,25.9-60.1c0-45.8-37.2-83-83-83
					c-45.8,0-83,37.2-83,83c0,23.6,9.9,45,25.8,60.1c-2.5,1.9-5,3.8-7.4,6c-17.9-17.5-27.8-40.9-27.8-66.1
					c0-50.9,41.4-92.4,92.4-92.4s92.4,41.4,92.4,92.4C237.4,168.4,227.5,191.8,209.5,209.4z" />
          <path class="st1" d="M243.4,109.2H37.5v49.9c0,4.6,3.8,8.4,8.4,8.4h205.9v-49.9C251.7,113,248,109.2,243.4,109.2z" />
        </g>
        <g>
          <path class="st0" d="M83.4,137.2L83.4,137.2c0-8.2,6.1-14.9,14.8-14.9c5.3,0,8.5,1.8,11.2,4.5l-3.2,3.7c-2.3-2.1-4.7-3.6-8-3.6
					c-5.4,0-9.5,4.5-9.5,10.1v0.1c0,5.6,4,10.1,9.5,10.1c3.5,0,5.8-1.4,8.2-3.7l3.2,3.3c-3,3.1-6.3,5.1-11.6,5.1
					C89.6,152,83.4,145.5,83.4,137.2z" />
          <path class="st0" d="M128.3,129.9h5.2l-8.6,22.2c-1.7,4.4-3.6,6.1-7.1,6.1c-2,0-3.6-0.5-5.1-1.3l1.7-3.7
					c0.9,0.5,1.9,0.8,2.9,0.8c1.4,0,2.3-0.6,3.1-2.5l-9-21.6h5.3l6.1,16L128.3,129.9z" />
          <path class="st0" d="M135.3,147.3l3-3.6c2.7,2.4,5.5,3.7,9,3.7c3.1,0,5.1-1.5,5.1-3.6v-0.1c0-2-1.1-3.2-6.5-4.4
					c-6.1-1.5-9.5-3.3-9.5-8.6v-0.1c0-4.9,4.1-8.3,9.8-8.3c4.2,0,7.5,1.3,10.4,3.6l-2.7,3.8c-2.6-1.9-5.2-2.9-7.8-2.9
					c-2.9,0-4.7,1.5-4.7,3.4v0.1c0,2.2,1.3,3.2,6.8,4.5c6.1,1.5,9.2,3.6,9.2,8.4v0.1c0,5.4-4.2,8.6-10.2,8.6
					C142.9,151.9,138.7,150.4,135.3,147.3z" />
          <path class="st0" d="M170.9,122.6h4.7l12.6,28.9h-5.3l-2.9-6.9h-13.5l-2.9,6.9h-5.2L170.9,122.6z M178.1,140.1l-5-11.5
					l-4.9,11.5H178.1z" />
          <path class="st0" d="M195.5,139.3h-7.9v-4.5h7.9V127h4.7v7.8h7.9v4.5h-7.9v7.8h-4.7V139.3z" />
        </g>
      </g>
    </g>
  </switch>
</svg>