<?xml version="1.0" encoding="utf-8"?>
<!-- Generator: Adobe Illustrator 23.0.1, SVG Export Plug-In . SVG Version: 6.00 Build 0)  -->
<svg version="1.1" id="Layer_1" xmlns="http://www.w3.org/2000/svg" xmlns:xlink="http://www.w3.org/1999/xlink" x="0px" y="0px" viewBox="0 0 288 288" style="enable-background:new 0 0 288 288;" xml:space="preserve">
  <style type="text/css">
	.st0{fill:#FFFFFF;}
	.st1{fill:#6A747C;}
	.st2{fill:#E1251B;}
</style>
  <g>
    <path class="st0" d="M144.73,48.37c-52.62,0-95.43,42.81-95.43,95.43c0,26.46,10.58,51.07,29.8,69.28l1.04,0.99l1.06-0.98
		c2.76-2.55,5.67-4.91,8.69-7.09c14.63,12.92,33.83,20.78,54.84,20.78c21,0,40.18-7.85,54.81-20.76c3,2.17,5.9,4.53,8.65,7.07
		l1.06,0.98l1.04-0.99c19.26-18.25,29.86-42.85,29.86-69.28C240.16,91.18,197.35,48.37,144.73,48.37z" />
    <path class="st1" d="M144.73,48.37c-52.62,0-95.43,42.81-95.43,95.43c0,26.46,10.58,51.07,29.8,69.28l1.04,0.99l1.06-0.98
		c2.76-2.55,5.67-4.91,8.69-7.09c14.63,12.92,33.83,20.78,54.84,20.78c21,0,40.18-7.85,54.81-20.76c3,2.17,5.9,4.53,8.65,7.07
		l1.06,0.98l1.04-0.99c19.26-18.25,29.86-42.85,29.86-69.28C240.16,91.18,197.35,48.37,144.73,48.37z M144.73,223.7
		c-19.96,0-38.22-7.37-52.24-19.52c10.12-6.79,21.47-11.52,33.42-13.95v6.48c0,4.62,2.46,8.97,6.42,11.36l12,7.23l12-7.23
		c3.96-2.38,6.42-6.73,6.42-11.36l0-6.64c12.23,2.38,23.85,7.17,34.2,14.13C182.92,216.34,164.67,223.7,144.73,223.7z M64.82,143.8
		c0-44.06,35.84-79.9,79.9-79.9s79.9,35.84,79.9,79.9c0,22.97-9.76,43.7-25.33,58.29c-11.02-7.54-23.44-12.67-36.56-15.14l0-6.14
		l0-3.65l-1.11-0.32c-0.16-0.05-3.89-1.11-11.36-1.55c-1.21-0.07-3.56-1.58-4.86-2.87l-1.09-1.09l-1.09,1.09
		c-1.11,1.11-3.64,2.81-4.87,2.9c-6.75,0.48-11.11,1.58-11.29,1.63l-1.16,0.3v9.87c-12.83,2.52-24.99,7.59-35.78,14.96
		C74.57,187.48,64.82,166.76,64.82,143.8z M142.79,210.78l-8.87-5.34c-3.04-1.83-4.93-5.17-4.93-8.72v-17.05
		c1.69-0.35,5.11-0.96,9.59-1.28c1.32-0.09,2.87-0.87,4.2-1.73V210.78z M145.86,176.68c1.29,0.84,2.82,1.6,4.23,1.68
		c4.82,0.28,8.01,0.84,9.57,1.17l0,1.28l0,15.9c0,3.55-1.89,6.89-4.93,8.72l-8.87,5.34V176.68z M209.21,209.86
		c-2.36-2.12-4.82-4.1-7.35-5.96c15.91-15.13,25.85-36.47,25.85-60.1c0-45.76-37.23-82.98-82.98-82.98
		c-45.76,0-82.98,37.23-82.98,82.98c0,23.62,9.93,44.95,25.82,60.07c-2.55,1.87-5.02,3.86-7.39,5.98
		c-17.94-17.52-27.81-40.92-27.81-66.05c0-50.92,41.43-92.35,92.35-92.35s92.35,41.43,92.35,92.35
		C237.08,168.9,227.19,192.3,209.21,209.86z" />
    <g>
      <path class="st2" d="M120.87,90.42c-2.24,0-4,1.5-4,3.4c0,1.9,1.76,3.38,4,3.38c2.24,0,4-1.47,4-3.38
			C124.86,91.92,123.1,90.42,120.87,90.42 M120.87,99.48c-3.52,0-6.28-2.47-6.28-5.66c0-3.19,2.76-5.69,6.28-5.69
			c3.52,0,6.28,2.5,6.28,5.69C127.15,97.01,124.39,99.48,120.87,99.48" />
      <path class="st2" d="M143.33,99.48c-1.26,0-2.28-1.05-2.28-2.33l0-4.71c0-1.12-0.98-2.02-2.19-2.02c-1.19,0-2.17,0.9-2.17,2.02
			l0,7.04c-1.26,0-2.29-1.02-2.29-2.28l0-4.76c0-1.12-0.98-2.02-2.19-2.02c-1.19,0-2.17,0.9-2.17,2.02l0,4.74
			c0,1.26-1.02,2.31-2.28,2.31l0-7.04c0-2.38,2-4.31,4.45-4.31c1.33,0,2.52,0.55,3.33,1.43c0.81-0.88,2-1.43,3.31-1.43
			c2.47,0,4.47,1.93,4.47,4.31L143.33,99.48z" />
      <path class="st2" d="M150.75,99.46c-0.6,0-1.17-0.05-1.69-0.17c-1.19-0.33-1.88-1.57-1.57-2.76c0.05-0.14,0.09-0.28,0.14-0.4
			l0.02-0.02c0.64,0.72,1.69,1.07,3.1,1.07c2.1,0,3.74-1.47,3.74-3.33c0-1.93-1.64-3.45-3.74-3.45c-1.98,0-3.95,1.09-3.95,3.5l0,7.4
			c0,1.24-1.05,2.24-2.28,2.24l0-9.64c0-3.33,2.62-5.78,6.24-5.78c1.59,0,3.09,0.6,4.23,1.64c1.15,1.07,1.79,2.52,1.79,4.09
			C156.77,96.99,154.13,99.46,150.75,99.46" />
      <path class="st2" d="M167.05,85.97l-4.89,0l0,13.52h-0.09c-1.21,0-2.19-1.04-2.19-2.28l0-11.23l-4.89,0
			c-1.24,0-2.24-1.02-2.24-2.26l16.56,0C169.31,84.94,168.31,85.97,167.05,85.97" />
      <path class="st2" d="M181.54,86.06l-3.25,7.14l6.13,0l-3.27-7.16L181.54,86.06z M186.61,98.05l-1.21-2.61l-8.12,0l-1.2,2.68
			c-0.57,1.08-2.07,1.4-3.23,1.4l6.62-14.5c0.37-0.83,1.04-1.31,1.81-1.31c0.77,0,1.45,0.48,1.83,1.31l6.54,14.33
			C188.43,99.46,187.09,99.09,186.61,98.05" />
      <path class="st2" d="M112.02,87.97c-1.24-1.31-3.05-2.16-5.05-2.16c-3.54,0-6.43,2.57-6.43,5.73c0,3.16,2.88,5.76,6.43,5.76
			c1.69,0,3.28-0.64,4.5-1.66c0.83-0.69,2.07-0.64,2.88,0.05c-0.62,0.95-1.45,1.78-2.48,2.43c-1.45,0.93-3.14,1.41-4.9,1.41
			c-4.78,0-8.66-3.57-8.66-7.97c0-4.4,3.88-7.97,8.66-7.97c3.4,0,6.5,1.86,7.88,4.71C113.97,88.85,112.75,88.78,112.02,87.97" />
      <path class="st2" d="M190.96,97.64c-0.03,0.02-0.07,0.03-0.11,0.05c0,0,0.07,0.09,0.3,0.36l-0.04,0.04
			c-0.1,0.08-0.24,0.07-0.32-0.03c-0.25-0.3-0.28-0.34-0.28-0.34h-0.29v-0.08c0.01-0.11,0.1-0.2,0.22-0.2h0.14
			c0.1,0,0.18-0.02,0.23-0.05c0.04-0.02,0.06-0.05,0.06-0.09c0-0.04,0-0.13-0.28-0.13h-0.39v0.75c0,0.12-0.1,0.22-0.23,0.22h-0.06
			l0-1.04c0.01-0.12,0.1-0.21,0.22-0.21l0.46,0c0.52,0,0.57,0.29,0.57,0.42C191.16,97.44,191.08,97.56,190.96,97.64 M190.52,96.7
			c-0.53,0-0.95,0.37-0.95,0.83c0,0.46,0.42,0.83,0.95,0.83c0.53,0,0.96-0.37,0.96-0.83C191.48,97.07,191.05,96.7,190.52,96.7
			 M190.52,98.61c-0.66,0-1.2-0.48-1.2-1.08c0-0.59,0.54-1.09,1.2-1.09c0.66,0,1.2,0.49,1.2,1.09
			C191.72,98.13,191.18,98.61,190.52,98.61" />
      <path class="st2" d="M170.03,83.71l0,13.56c0,1.21,1.05,2.21,2.28,2.21l0-13.56C172.32,84.71,171.27,83.71,170.03,83.71" />
    </g>
    <path class="st2" d="M243.47,109.7H37.56v49.89c0,4.61,3.75,8.36,8.36,8.36h205.91v-49.89C251.83,113.45,248.08,109.7,243.47,109.7
		z" />
    <path class="st1" d="M209.55,207.45c-0.03,0.02-0.07,0.03-0.11,0.05c0,0,0.07,0.09,0.3,0.36l-0.04,0.04
		c-0.1,0.08-0.24,0.07-0.32-0.03c-0.25-0.3-0.28-0.34-0.28-0.34h-0.29v-0.08c0.01-0.11,0.1-0.2,0.22-0.2h0.14
		c0.1,0,0.18-0.02,0.23-0.05c0.04-0.02,0.06-0.05,0.06-0.09c0-0.04,0-0.13-0.28-0.13l-0.39,0l0,0.75c0,0.12-0.1,0.22-0.23,0.22
		h-0.06v-1.04c0.01-0.12,0.1-0.21,0.22-0.21h0.46c0.52,0,0.57,0.29,0.57,0.42C209.75,207.25,209.67,207.38,209.55,207.45
		 M209.11,206.51c-0.53,0-0.95,0.37-0.95,0.83c0,0.46,0.42,0.83,0.95,0.83c0.53,0,0.96-0.37,0.96-0.83
		C210.07,206.89,209.64,206.51,209.11,206.51 M209.11,208.42c-0.66,0-1.2-0.48-1.2-1.08c0-0.59,0.54-1.09,1.2-1.09
		c0.66,0,1.2,0.49,1.2,1.09C210.31,207.94,209.77,208.42,209.11,208.42" />
    <g>
      <path class="st0" d="M97.62,152.91c-7.93,0-13.84-6.18-13.84-14.04c0-7.78,5.79-14.12,14.04-14.12c5.02,0,8.05,1.75,10.66,4.24
			l-3.07,3.54c-2.18-2.02-4.51-3.38-7.62-3.38c-5.21,0-8.98,4.28-8.98,9.64c0,5.37,3.77,9.72,8.98,9.72c3.34,0,5.48-1.36,7.81-3.54
			l3.07,3.11C105.82,151.04,102.71,152.91,97.62,152.91z" />
      <path class="st0" d="M137.35,152.44h-5.06l-2.76-6.57h-12.87l-2.8,6.57h-4.9l11.98-27.41h4.43L137.35,152.44z M123.08,130.74
			l-4.67,10.89h9.37L123.08,130.74z" />
      <path class="st0" d="M150.51,136.65c5.76,1.4,8.75,3.46,8.75,8.01c0,5.13-4.01,8.17-9.72,8.17c-4.16,0-8.09-1.44-11.35-4.35
			l2.88-3.42c2.61,2.26,5.21,3.54,8.59,3.54c2.96,0,4.82-1.36,4.82-3.46c0-1.98-1.09-3.03-6.15-4.2c-5.79-1.4-9.06-3.11-9.06-8.17
			c0-4.74,3.89-7.93,9.29-7.93c3.97,0,7.12,1.21,9.88,3.42l-2.57,3.62c-2.45-1.83-4.9-2.8-7.39-2.8c-2.8,0-4.43,1.44-4.43,3.27
			C144.05,134.47,145.3,135.41,150.51,136.65z" />
      <path class="st0" d="M172.48,143.69h-5.41v8.75h-4.78v-27.22h10.73c6.34,0,10.34,3.58,10.34,9.14
			C183.36,140.5,178.46,143.69,172.48,143.69z M172.63,129.58h-5.56v9.8h5.56c3.62,0,5.87-1.98,5.87-4.9
			C178.5,131.25,176.21,129.58,172.63,129.58z" />
      <g>
        <path class="st0" d="M193.61,140.99h-7.54v-4.36h7.54v-7.46h4.47v7.46h7.54v4.36h-7.54v7.5h-4.47V140.99z" />
      </g>
    </g>
  </g>
</svg>