<?xml version="1.0" encoding="utf-8"?>
<!-- Generator: Adobe Illustrator 19.2.0, SVG Export Plug-In . SVG Version: 6.00 Build 0)  -->
<svg version="1.1" id="Layer_1" xmlns="http://www.w3.org/2000/svg" xmlns:xlink="http://www.w3.org/1999/xlink" x="0px" y="0px" viewBox="0 0 288 288" style="enable-background:new 0 0 288 288;" xml:space="preserve">
  <style type="text/css">
	.st0{fill:#FFFFFF;}
	.st1{fill:#6A747C;}
	.st2{fill:#E2231A;}
</style>
  <g>
    <g>
      <g>
        <path class="st0" d="M145.2,49.5c-52.6,0-95.4,42.8-95.4,95.4c0,26.5,10.6,51.1,29.8,69.3l1,1l1.1-1c2.8-2.6,5.7-4.9,8.7-7.1
				c14.6,12.9,33.8,20.8,54.8,20.8c21,0,40.2-7.9,54.8-20.8c3,2.2,5.9,4.5,8.6,7.1l1.1,1l1-1c19.3-18.3,29.9-42.9,29.9-69.3
				C240.6,92.3,197.8,49.5,145.2,49.5z" />
        <path class="st1" d="M145.2,49.5c-52.6,0-95.4,42.8-95.4,95.4c0,26.5,10.6,51.1,29.8,69.3l1,1l1.1-1c2.8-2.6,5.7-4.9,8.7-7.1
				c14.6,12.9,33.8,20.8,54.8,20.8c21,0,40.2-7.9,54.8-20.8c3,2.2,5.9,4.5,8.6,7.1l1.1,1l1-1c19.3-18.3,29.9-42.9,29.9-69.3
				C240.6,92.3,197.8,49.5,145.2,49.5z M145.2,224.9c-20,0-38.2-7.4-52.2-19.5c11.2-7.5,24-12.5,37.4-14.7l-3.1,18.8h7.6l-0.9,6.1
				c-0.1,0.8,0.4,1.6,1.3,1.8c0.1,0,0.2,0,0.2,0c0.7,0,1.4-0.5,1.5-1.3l1-6.5h14.6l0.9,6.5c0.1,0.8,0.9,1.4,1.7,1.3
				c0.8-0.1,1.4-0.9,1.3-1.7l-0.9-6.1h7.5l-3.1-18.9c13.4,2.1,26.1,7.1,37.4,14.7C183.4,217.5,165.1,224.9,145.2,224.9z M65.2,145
				c0-44.1,35.8-79.9,79.9-79.9s79.9,35.8,79.9,79.9c0,23-9.8,43.7-25.3,58.3c-12-8.3-25.8-13.6-40.2-15.8l-1.2-7.6h-6.9l-0.8-5.2
				h-10.3l-0.8,5.2h-7.4l-1.2,7.6c-14.5,2.1-28.2,7.5-40.3,15.7C75,188.6,65.2,167.9,65.2,145z M134.7,182.9h4.3l-3.7,23.5h-4.5
				L134.7,182.9z M142.1,182.9h6.5l3.4,23.5h-13.6L142.1,182.9z M142.6,179.9l0.3-2.1h5l0.3,2.1H142.6z M151.7,182.9h3.9l3.9,23.5
				h-4.3L151.7,182.9z M209.6,211c-2.4-2.1-4.8-4.1-7.4-6c15.9-15.1,25.9-36.5,25.9-60.1c0-45.8-37.2-83-83-83s-83,37.2-83,83
				c0,23.6,9.9,44.9,25.8,60.1c-2.5,1.9-5,3.9-7.4,6c-17.9-17.5-27.8-40.9-27.8-66.1c0-50.9,41.4-92.4,92.4-92.4S237.5,94,237.5,145
				C237.5,170.1,227.6,193.5,209.6,211z" />
        <g>
          <g>
            <path class="st2" d="M121.3,91.6c-2.2,0-4,1.5-4,3.4c0,1.9,1.8,3.4,4,3.4s4-1.5,4-3.4C125.3,93.1,123.5,91.6,121.3,91.6
						 M121.3,100.6c-3.5,0-6.3-2.5-6.3-5.7c0-3.2,2.8-5.7,6.3-5.7c3.5,0,6.3,2.5,6.3,5.7C127.6,98.2,124.8,100.6,121.3,100.6" />
            <path class="st2" d="M143.8,100.6c-1.3,0-2.3-1-2.3-2.3v-4.7c0-1.1-1-2-2.2-2c-1.2,0-2.2,0.9-2.2,2l0,7c-1.3,0-2.3-1-2.3-2.3
						l0-4.8c0-1.1-1-2-2.2-2c-1.2,0-2.2,0.9-2.2,2v4.7c0,1.3-1,2.3-2.3,2.3l0-7c0-2.4,2-4.3,4.5-4.3c1.3,0,2.5,0.5,3.3,1.4
						c0.8-0.9,2-1.4,3.3-1.4c2.5,0,4.5,1.9,4.5,4.3L143.8,100.6z" />
            <path class="st2" d="M151.2,100.6c-0.6,0-1.2,0-1.7-0.2c-1.2-0.3-1.9-1.6-1.6-2.8c0-0.1,0.1-0.3,0.1-0.4l0,0
						c0.6,0.7,1.7,1.1,3.1,1.1c2.1,0,3.7-1.5,3.7-3.3c0-1.9-1.6-3.5-3.7-3.5c-2,0-4,1.1-4,3.5l0,7.4c0,1.2-1,2.2-2.3,2.2l0-9.6
						c0-3.3,2.6-5.8,6.2-5.8c1.6,0,3.1,0.6,4.2,1.6c1.1,1.1,1.8,2.5,1.8,4.1C157.2,98.1,154.6,100.6,151.2,100.6" />
            <path class="st2" d="M167.5,87.1l-4.9,0l0,13.5h-0.1c-1.2,0-2.2-1-2.2-2.3l0-11.2l-4.9,0c-1.2,0-2.2-1-2.2-2.3l16.6,0
						C169.7,86.1,168.7,87.1,167.5,87.1" />
            <path class="st2" d="M182,87.2l-3.2,7.1l6.1,0l-3.3-7.2L182,87.2z M187,99.2l-1.2-2.6l-8.1,0l-1.2,2.7
						c-0.6,1.1-2.1,1.4-3.2,1.4l6.6-14.5c0.4-0.8,1-1.3,1.8-1.3c0.8,0,1.5,0.5,1.8,1.3l6.5,14.3C188.9,100.6,187.5,100.2,187,99.2" />
            <path class="st2" d="M112.4,89.1c-1.2-1.3-3-2.2-5-2.2c-3.5,0-6.4,2.6-6.4,5.7c0,3.2,2.9,5.8,6.4,5.8c1.7,0,3.3-0.6,4.5-1.7
						c0.8-0.7,2.1-0.6,2.9,0c-0.6,1-1.5,1.8-2.5,2.4c-1.5,0.9-3.1,1.4-4.9,1.4c-4.8,0-8.7-3.6-8.7-8c0-4.4,3.9-8,8.7-8
						c3.4,0,6.5,1.9,7.9,4.7C114.4,90,113.2,89.9,112.4,89.1" />
            <path class="st2" d="M191.4,98.8c0,0-0.1,0-0.1,0c0,0,0.1,0.1,0.3,0.4l0,0c-0.1,0.1-0.2,0.1-0.3,0c-0.3-0.3-0.3-0.3-0.3-0.3
						h-0.3v-0.1c0-0.1,0.1-0.2,0.2-0.2h0.1c0.1,0,0.2,0,0.2,0c0,0,0.1,0,0.1-0.1c0,0,0-0.1-0.3-0.1h-0.4l0,0.8
						c0,0.1-0.1,0.2-0.2,0.2h-0.1v-1c0-0.1,0.1-0.2,0.2-0.2l0.5,0c0.5,0,0.6,0.3,0.6,0.4C191.6,98.6,191.5,98.7,191.4,98.8
						 M190.9,97.9c-0.5,0-0.9,0.4-0.9,0.8c0,0.5,0.4,0.8,0.9,0.8c0.5,0,1-0.4,1-0.8C191.9,98.2,191.5,97.9,190.9,97.9 M190.9,99.8
						c-0.7,0-1.2-0.5-1.2-1.1c0-0.6,0.5-1.1,1.2-1.1c0.7,0,1.2,0.5,1.2,1.1C192.1,99.3,191.6,99.8,190.9,99.8" />
            <path class="st2" d="M170.5,84.9l0,13.6c0,1.2,1,2.2,2.3,2.2l0-13.6C172.7,85.9,171.7,84.9,170.5,84.9" />
          </g>
          <path class="st2" d="M243.5,110.9H37.6v49.9c0,4.6,3.8,8.4,8.4,8.4h205.9v-49.9C251.8,114.6,248.1,110.9,243.5,110.9z" />
          <g>
            <path class="st0" d="M119.3,153.3c-7.5,0-13.1-5.9-13.1-13.3c0-7.4,5.5-13.4,13.3-13.4c4.8,0,7.6,1.7,10.1,4l-2.9,3.4
						c-2.1-1.9-4.3-3.2-7.2-3.2c-4.9,0-8.5,4.1-8.5,9.2c0,5.1,3.6,9.2,8.5,9.2c3.2,0,5.2-1.3,7.4-3.4l2.9,3
						C127.1,151.5,124.1,153.3,119.3,153.3z" />
            <path class="st0" d="M144.9,152.9h-4.6v-21.6h-8.2V127h21v4.2h-8.2V152.9z" />
            <path class="st0" d="M168.4,152.9h-4.6v-21.6h-8.2V127h21v4.2h-8.2V152.9z" />
            <path class="st0" d="M183.8,130.8h4.2v7.1h7.1v4.1H188v7.1h-4.2v-7.1h-7.1v-4.1h7.1V130.8z" />
          </g>
        </g>
      </g>
    </g>
    <path class="st1" d="M210,208.5c0,0-0.1,0-0.1,0c0,0,0.1,0.1,0.3,0.4l0,0c-0.1,0.1-0.2,0.1-0.3,0c-0.3-0.3-0.3-0.3-0.3-0.3h-0.3
		v-0.1c0-0.1,0.1-0.2,0.2-0.2h0.1c0.1,0,0.2,0,0.2,0c0,0,0.1,0,0.1-0.1c0,0,0-0.1-0.3-0.1l-0.4,0v0.8c0,0.1-0.1,0.2-0.2,0.2h-0.1
		l0-1c0-0.1,0.1-0.2,0.2-0.2l0.5,0c0.5,0,0.6,0.3,0.6,0.4C210.2,208.4,210.1,208.5,210,208.5 M209.5,207.6c-0.5,0-0.9,0.4-0.9,0.8
		c0,0.5,0.4,0.8,0.9,0.8c0.5,0,1-0.4,1-0.8C210.5,208,210,207.6,209.5,207.6 M209.5,209.5c-0.7,0-1.2-0.5-1.2-1.1
		c0-0.6,0.5-1.1,1.2-1.1c0.7,0,1.2,0.5,1.2,1.1C210.7,209,210.2,209.5,209.5,209.5" />
  </g>
</svg>