<?xml version="1.0" encoding="utf-8"?>
<!-- Generator: Adobe Illustrator 19.2.0, SVG Export Plug-In . SVG Version: 6.00 Build 0)  -->
<svg version="1.1" id="Layer_1" xmlns="http://www.w3.org/2000/svg" xmlns:xlink="http://www.w3.org/1999/xlink" x="0px" y="0px" viewBox="0 0 288 288" style="enable-background:new 0 0 288 288;" xml:space="preserve">
  <style type="text/css">
	.st0{fill:#FFFFFF;}
	.st1{fill:#6A747C;}
	.st2{fill:#E2231A;}
</style>
  <g>
    <g>
      <g>
        <path class="st0" d="M145.2,50.3c-52.6,0-95.4,42.8-95.4,95.4c0,26.5,10.6,51.1,29.8,69.3l1,1l1.1-1c2.8-2.6,5.7-4.9,8.7-7.1
				c14.6,12.9,33.8,20.8,54.8,20.8c21,0,40.2-7.9,54.8-20.8c3,2.2,5.9,4.5,8.7,7.1l1.1,1l1-1c19.3-18.3,29.9-42.9,29.9-69.3
				C240.6,93.1,197.8,50.3,145.2,50.3z" />
        <g>
          <circle class="st1" cx="132.1" cy="190.7" r="1.9" />
          <circle class="st1" cx="132.1" cy="209.9" r="1.9" />
          <path class="st1" d="M145.2,50.3c-52.6,0-95.4,42.8-95.4,95.4c0,26.5,10.6,51.1,29.8,69.3l1,1l1.1-1c2.8-2.6,5.7-4.9,8.7-7.1
					c14.6,12.9,33.8,20.8,54.8,20.8c21,0,40.2-7.9,54.8-20.8c3,2.2,5.9,4.5,8.7,7.1l1.1,1l1-1c19.3-18.3,29.9-42.9,29.9-69.3
					C240.6,93.1,197.8,50.3,145.2,50.3z M65.2,145.7c0-44.1,35.8-79.9,79.9-79.9s79.9,35.8,79.9,79.9c0,23-9.8,43.7-25.3,58.3
					c-10.3-7.1-21.9-12-34.1-14.6v-1.3c0-2.8-2.3-5-5-5h-35.9v6.3c-12.2,2.6-23.8,7.6-34.1,14.6C75,189.4,65.2,168.7,65.2,145.7z
					 M127.8,195.2v-9.1h32.8c1.1,0,2,0.9,2,2v7.2H127.8z M124.7,192.5v5.8h18.9v3.9h-18.9v15.3h18.9v8.1c-19.4-0.4-37-7.6-50.7-19.5
					C102.6,199.6,113.3,195,124.7,192.5z M143.6,214.5h-15.9v-9.1h15.9V214.5z M146.7,205.3h13.9c1.1,0,2,0.9,2,2v7.2h-15.9V205.3z
					 M146.7,225.6v-8.1h18.9v-10.3c0-2.8-2.3-5-5-5h-13.9v-3.9h18.9v-5.8c11.3,2.5,22.1,7.1,31.7,13.6
					C183.7,218,166,225.2,146.7,225.6z M209.6,211.8c-2.4-2.1-4.8-4.1-7.3-6c15.9-15.1,25.8-36.5,25.8-60.1c0-45.8-37.2-83-83-83
					c-45.8,0-83,37.2-83,83c0,23.6,9.9,44.9,25.8,60.1c-2.5,1.9-5,3.9-7.4,6c-17.9-17.5-27.8-40.9-27.8-66.1
					c0-50.9,41.4-92.4,92.4-92.4s92.4,41.4,92.4,92.4C237.5,170.8,227.6,194.2,209.6,211.8z" />
        </g>
        <g>
          <g>
            <path class="st2" d="M121.3,92.4c-2.2,0-4,1.5-4,3.4c0,1.9,1.8,3.4,4,3.4c2.2,0,4-1.5,4-3.4C125.3,93.9,123.5,92.4,121.3,92.4
						 M121.3,101.4c-3.5,0-6.3-2.5-6.3-5.7c0-3.2,2.8-5.7,6.3-5.7c3.5,0,6.3,2.5,6.3,5.7C127.6,98.9,124.8,101.4,121.3,101.4" />
            <path class="st2" d="M143.8,101.4c-1.3,0-2.3-1-2.3-2.3l0-4.7c0-1.1-1-2-2.2-2c-1.2,0-2.2,0.9-2.2,2l0,7c-1.3,0-2.3-1-2.3-2.3
						l0-4.8c0-1.1-1-2-2.2-2c-1.2,0-2.2,0.9-2.2,2l0,4.7c0,1.3-1,2.3-2.3,2.3l0-7c0-2.4,2-4.3,4.5-4.3c1.3,0,2.5,0.5,3.3,1.4
						c0.8-0.9,2-1.4,3.3-1.4c2.5,0,4.5,1.9,4.5,4.3L143.8,101.4z" />
            <path class="st2" d="M151.2,101.4c-0.6,0-1.2,0-1.7-0.2c-1.2-0.3-1.9-1.6-1.6-2.8c0-0.1,0.1-0.3,0.1-0.4l0,0
						c0.6,0.7,1.7,1.1,3.1,1.1c2.1,0,3.7-1.5,3.7-3.3c0-1.9-1.6-3.5-3.7-3.5c-2,0-4,1.1-4,3.5l0,7.4c0,1.2-1,2.2-2.3,2.2l0-9.6
						c0-3.3,2.6-5.8,6.2-5.8c1.6,0,3.1,0.6,4.2,1.6c1.1,1.1,1.8,2.5,1.8,4.1C157.2,98.9,154.6,101.4,151.2,101.4" />
            <path class="st2" d="M167.5,87.9l-4.9,0l0,13.5h-0.1c-1.2,0-2.2-1-2.2-2.3l0-11.2l-4.9,0c-1.2,0-2.2-1-2.2-2.3l16.6,0
						C169.7,86.9,168.7,87.9,167.5,87.9" />
            <path class="st2" d="M182,88l-3.2,7.1l6.1,0l-3.3-7.2L182,88z M187,100l-1.2-2.6l-8.1,0l-1.2,2.7c-0.6,1.1-2.1,1.4-3.2,1.4
						l6.6-14.5c0.4-0.8,1-1.3,1.8-1.3c0.8,0,1.5,0.5,1.8,1.3l6.5,14.3C188.9,101.4,187.5,101,187,100" />
            <path class="st2" d="M112.4,89.9c-1.2-1.3-3-2.2-5-2.2c-3.5,0-6.4,2.6-6.4,5.7c0,3.2,2.9,5.8,6.4,5.8c1.7,0,3.3-0.6,4.5-1.7
						c0.8-0.7,2.1-0.6,2.9,0c-0.6,1-1.5,1.8-2.5,2.4c-1.5,0.9-3.1,1.4-4.9,1.4c-4.8,0-8.7-3.6-8.7-8c0-4.4,3.9-8,8.7-8
						c3.4,0,6.5,1.9,7.9,4.7C114.4,90.8,113.2,90.7,112.4,89.9" />
            <path class="st2" d="M191.4,99.6c0,0-0.1,0-0.1,0c0,0,0.1,0.1,0.3,0.4l0,0c-0.1,0.1-0.2,0.1-0.3,0c-0.3-0.3-0.3-0.3-0.3-0.3
						h-0.3v-0.1c0-0.1,0.1-0.2,0.2-0.2h0.1c0.1,0,0.2,0,0.2,0c0,0,0.1,0,0.1-0.1c0,0,0-0.1-0.3-0.1h-0.4v0.8c0,0.1-0.1,0.2-0.2,0.2
						h-0.1l0-1c0-0.1,0.1-0.2,0.2-0.2l0.5,0c0.5,0,0.6,0.3,0.6,0.4C191.6,99.4,191.5,99.5,191.4,99.6 M190.9,98.6
						c-0.5,0-0.9,0.4-0.9,0.8c0,0.5,0.4,0.8,0.9,0.8c0.5,0,1-0.4,1-0.8C191.9,99,191.5,98.6,190.9,98.6 M190.9,100.5
						c-0.7,0-1.2-0.5-1.2-1.1c0-0.6,0.5-1.1,1.2-1.1c0.7,0,1.2,0.5,1.2,1.1C192.1,100.1,191.6,100.5,190.9,100.5" />
            <path class="st2" d="M170.5,85.6l0,13.6c0,1.2,1,2.2,2.3,2.2l0-13.6C172.7,86.6,171.7,85.6,170.5,85.6" />
          </g>
          <path class="st2" d="M243.5,111.6H37.6v49.9c0,4.6,3.8,8.4,8.4,8.4h205.9V120C251.8,115.4,248.1,111.6,243.5,111.6z" />
          <g>
            <path class="st0" d="M95.3,138.6c5.5,1.3,8.3,3.3,8.3,7.6c0,4.9-3.8,7.8-9.2,7.8c-4,0-7.7-1.4-10.8-4.1l2.7-3.2
						c2.5,2.1,4.9,3.4,8.2,3.4c2.8,0,4.6-1.3,4.6-3.3c0-1.9-1-2.9-5.8-4c-5.5-1.3-8.6-3-8.6-7.8c0-4.5,3.7-7.5,8.8-7.5
						c3.8,0,6.8,1.1,9.4,3.2l-2.4,3.4c-2.3-1.7-4.7-2.7-7-2.7c-2.7,0-4.2,1.4-4.2,3.1C89.2,136.6,90.3,137.5,95.3,138.6z" />
            <path class="st0" d="M116.4,150.4c2.2,0,3.7-0.8,5.3-2.3l2.6,2.3c-1.8,2.2-4.4,3.7-8,3.7c-5.6,0-10-4.1-10-10.2
						c0-5.6,4-10.2,9.5-10.2c6.2,0,9.3,4.9,9.3,10.5c0,0.4,0,0.8-0.1,1.2h-14.3C111.3,148.7,113.5,150.4,116.4,150.4z M120.7,142.5
						c-0.3-2.9-2-5.1-4.9-5.1c-2.7,0-4.7,2.1-5.1,5.1H120.7z" />
            <path class="st0" d="M133.1,153.6h-4.5v-19.5h4.5v4.4c1.2-2.9,3.5-4.9,6.9-4.8v4.7h-0.3c-3.9,0-6.6,2.5-6.6,7.7V153.6z" />
            <path class="st0" d="M157,134.1h4.7l-8,19.6h-4l-8-19.6h4.8l5.2,14.3L157,134.1z" />
            <path class="st0" d="M172.3,150.4c2.2,0,3.7-0.8,5.3-2.3l2.6,2.3c-1.8,2.2-4.4,3.7-8,3.7c-5.6,0-10-4.1-10-10.2
						c0-5.6,4-10.2,9.5-10.2c6.2,0,9.3,4.9,9.3,10.5c0,0.4,0,0.8-0.1,1.2h-14.3C167.2,148.7,169.4,150.4,172.3,150.4z M176.7,142.5
						c-0.3-2.9-2-5.1-4.9-5.1c-2.7,0-4.7,2.1-5.1,5.1H176.7z" />
            <path class="st0" d="M189.1,153.6h-4.5v-19.5h4.5v4.4c1.2-2.9,3.5-4.9,6.9-4.8v4.7h-0.3c-3.9,0-6.6,2.5-6.6,7.7V153.6z" />
            <path class="st0" d="M205.7,131.6h4.2v7.1h7.1v4.1h-7.1v7.1h-4.2v-7.1h-7.1v-4.1h7.1V131.6z" />
          </g>
        </g>
      </g>
    </g>
    <path class="st1" d="M210,209.7c0,0-0.1,0-0.1,0c0,0,0.1,0.1,0.3,0.4l0,0c-0.1,0.1-0.2,0.1-0.3,0c-0.3-0.3-0.3-0.3-0.3-0.3h-0.3
		v-0.1c0-0.1,0.1-0.2,0.2-0.2h0.1c0.1,0,0.2,0,0.2,0c0,0,0.1,0,0.1-0.1c0,0,0-0.1-0.3-0.1h-0.4v0.8c0,0.1-0.1,0.2-0.2,0.2H209v-1
		c0-0.1,0.1-0.2,0.2-0.2h0.5c0.5,0,0.6,0.3,0.6,0.4C210.2,209.5,210.1,209.6,210,209.7 M209.6,208.8c-0.5,0-0.9,0.4-0.9,0.8
		c0,0.5,0.4,0.8,0.9,0.8c0.5,0,1-0.4,1-0.8C210.5,209.1,210.1,208.8,209.6,208.8 M209.6,210.7c-0.7,0-1.2-0.5-1.2-1.1
		c0-0.6,0.5-1.1,1.2-1.1c0.7,0,1.2,0.5,1.2,1.1C210.8,210.2,210.2,210.7,209.6,210.7" />
  </g>
</svg>