<?xml version="1.0" encoding="utf-8"?>
<!-- Generator: Adobe Illustrator 21.1.0, SVG Export Plug-In . SVG Version: 6.00 Build 0)  -->
<svg version="1.1" id="Layer_2" xmlns="http://www.w3.org/2000/svg" xmlns:xlink="http://www.w3.org/1999/xlink" x="0px" y="0px" viewBox="0 0 288 288" style="enable-background:new 0 0 288 288;" xml:space="preserve">
  <style type="text/css">
	.st0{fill:#FFFFFF;}
	.st1{fill:#E2231A;}
	.st2{fill:#6A747C;}
	.st3{fill-rule:evenodd;clip-rule:evenodd;fill:#FFFFFF;}
</style>
  <g>
    <path class="st0" d="M145.7,47.7c-52.6,0-95.4,42.8-95.4,95.4c0,26.5,10.6,51.1,29.8,69.3l1,1l1.1-1c2.8-2.6,5.7-4.9,8.7-7.1
		c14.6,12.9,33.8,20.8,54.8,20.8c21,0,40.2-7.9,54.8-20.8c3,2.2,5.9,4.5,8.7,7.1l1.1,1l1-1c19.3-18.2,29.9-42.9,29.9-69.3
		C241.1,90.5,198.3,47.7,145.7,47.7z" />
    <g>
      <path class="st1" d="M121.8,89.8c-2.2,0-4,1.5-4,3.4c0,1.9,1.8,3.4,4,3.4c2.2,0,4-1.5,4-3.4C125.8,91.3,124.1,89.8,121.8,89.8
			 M121.8,98.8c-3.5,0-6.3-2.5-6.3-5.7c0-3.2,2.8-5.7,6.3-5.7c3.5,0,6.3,2.5,6.3,5.7C128.1,96.4,125.4,98.8,121.8,98.8" />
      <path class="st1" d="M144.3,98.8c-1.3,0-2.3-1-2.3-2.3l0-4.7c0-1.1-1-2-2.2-2c-1.2,0-2.2,0.9-2.2,2l0,7c-1.3,0-2.3-1-2.3-2.3
			l0-4.8c0-1.1-1-2-2.2-2c-1.2,0-2.2,0.9-2.2,2l0,4.7c0,1.3-1,2.3-2.3,2.3l0-7c0-2.4,2-4.3,4.5-4.3c1.3,0,2.5,0.5,3.3,1.4
			c0.8-0.9,2-1.4,3.3-1.4c2.5,0,4.5,1.9,4.5,4.3L144.3,98.8z" />
      <path class="st1" d="M151.7,98.8c-0.6,0-1.2,0-1.7-0.2c-1.2-0.3-1.9-1.6-1.6-2.8c0-0.1,0.1-0.3,0.1-0.4l0,0
			c0.6,0.7,1.7,1.1,3.1,1.1c2.1,0,3.7-1.5,3.7-3.3c0-1.9-1.6-3.5-3.7-3.5c-2,0-4,1.1-4,3.5l0,7.4c0,1.2-1,2.2-2.3,2.2l0-9.6
			c0-3.3,2.6-5.8,6.2-5.8c1.6,0,3.1,0.6,4.2,1.6c1.1,1.1,1.8,2.5,1.8,4.1C157.7,96.4,155.1,98.8,151.7,98.8" />
      <path class="st1" d="M168,85.3l-4.9,0l0,13.5H163c-1.2,0-2.2-1-2.2-2.3l0-11.2l-4.9,0c-1.2,0-2.2-1-2.2-2.3l16.6,0
			C170.3,84.3,169.3,85.3,168,85.3" />
      <path class="st1" d="M182.5,85.4l-3.2,7.1l6.1,0l-3.3-7.2L182.5,85.4z M187.6,97.4l-1.2-2.6l-8.1,0l-1.2,2.7
			c-0.6,1.1-2.1,1.4-3.2,1.4l6.6-14.5c0.4-0.8,1-1.3,1.8-1.3c0.8,0,1.5,0.5,1.8,1.3l6.5,14.3C189.4,98.8,188.1,98.5,187.6,97.4" />
      <path class="st1" d="M113,87.3c-1.2-1.3-3-2.2-5-2.2c-3.5,0-6.4,2.6-6.4,5.7c0,3.2,2.9,5.8,6.4,5.8c1.7,0,3.3-0.6,4.5-1.7
			c0.8-0.7,2.1-0.6,2.9,0c-0.6,1-1.5,1.8-2.5,2.4c-1.5,0.9-3.1,1.4-4.9,1.4c-4.8,0-8.7-3.6-8.7-8c0-4.4,3.9-8,8.7-8
			c3.4,0,6.5,1.9,7.9,4.7C114.9,88.2,113.7,88.1,113,87.3" />
      <path class="st1" d="M191.9,97c0,0-0.1,0-0.1,0c0,0,0.1,0.1,0.3,0.4l0,0c-0.1,0.1-0.2,0.1-0.3,0c-0.3-0.3-0.3-0.3-0.3-0.3h-0.3V97
			c0-0.1,0.1-0.2,0.2-0.2h0.1c0.1,0,0.2,0,0.2,0c0,0,0.1,0,0.1-0.1c0,0,0-0.1-0.3-0.1h-0.4v0.8c0,0.1-0.1,0.2-0.2,0.2h-0.1v-1
			c0-0.1,0.1-0.2,0.2-0.2h0.5c0.5,0,0.6,0.3,0.6,0.4C192.1,96.8,192.1,96.9,191.9,97 M191.5,96.1c-0.5,0-0.9,0.4-0.9,0.8
			c0,0.5,0.4,0.8,0.9,0.8c0.5,0,1-0.4,1-0.8C192.4,96.4,192,96.1,191.5,96.1 M191.5,98c-0.7,0-1.2-0.5-1.2-1.1
			c0-0.6,0.5-1.1,1.2-1.1c0.7,0,1.2,0.5,1.2,1.1C192.7,97.5,192.2,98,191.5,98" />
      <path class="st1" d="M171,83.1l0,13.6c0,1.2,1,2.2,2.3,2.2l0-13.6C173.3,84.1,172.2,83.1,171,83.1" />
    </g>
    <path class="st2" d="M145.7,47.7c-52.6,0-95.4,42.8-95.4,95.4c0,26.5,10.6,51.1,29.8,69.3l1,1l1.1-1c2.8-2.6,5.7-4.9,8.7-7.1
		c14.6,12.9,33.8,20.8,54.8,20.8c21,0,40.2-7.9,54.8-20.8c3,2.2,5.9,4.5,8.7,7.1l1.1,1l1-1c19.3-18.2,29.9-42.9,29.9-69.3
		C241.1,90.5,198.3,47.7,145.7,47.7z M136.1,185.1c-16.2,1.6-31.6,7.2-45,16.3c-15.6-14.6-25.3-35.3-25.3-58.3
		c0-44.1,35.8-79.9,79.9-79.9s79.9,35.8,79.9,79.9c0,23-9.8,43.7-25.3,58.3c-13.7-9.3-29.5-15-46.1-16.4 M154.2,188.1
		c15.7,1.4,30.7,6.7,43.7,15.5c-14,12.1-32.3,19.5-52.2,19.5c-20,0-38.2-7.4-52.2-19.5c12.7-8.5,27.3-13.8,42.6-15.4 M210.2,209.2
		c-2.4-2.1-4.8-4.1-7.4-6c15.9-15.1,25.9-36.5,25.9-60.1c0-45.8-37.2-83-83-83s-83,37.2-83,83c0,23.6,9.9,45,25.8,60.1
		c-2.5,1.9-5,3.8-7.4,6c-17.9-17.5-27.8-40.9-27.8-66.1c0-50.9,41.4-92.4,92.4-92.4S238,92.2,238,143.2
		C238,168.3,228.2,191.7,210.2,209.2z" />
    <path class="st1" d="M244.5,109.1H38.6V159c0,4.6,3.8,8.4,8.4,8.4h205.9v-49.9C252.8,112.8,249.1,109.1,244.5,109.1z" />
    <g>
      <path class="st3" d="M171.4,197.1l-10.9-2c-0.1,0-0.2,0-0.3,0.1c0-0.1,0-0.1,0-0.2l-4-16l-6.7-2.1c-0.6-0.2-1.3-0.1-1.8,0.3
			l-0.6,0.4c-0.7,0.6-1.7,0.6-2.4,0l-0.6-0.4c-0.5-0.4-1.2-0.5-1.8-0.3l-5.6,1.8c-0.7,0.2-1.2,0.7-1.3,1.4l-3.3,15.5
			c-0.1-0.1-0.3-0.2-0.4-0.3c-0.1-0.1-0.3-0.2-0.5-0.1l-10.9,2c-0.5,0.1-0.6,0.7-0.1,1c0,0,11.5,12.5,25.7,12.5
			c14.1,0,25.7-12.5,25.7-12.5C172,197.9,171.9,197.2,171.4,197.1z" />
      <g>
        <path class="st3" d="M132.9,191.7c0,0,13.2,8.3,26,0" />
        <path class="st2" d="M173.2,197.3c-0.1-0.8-0.7-1.4-1.5-1.6l-10.3-1.9l-4-15.9l-7.4-2.3c-1.1-0.3-2.2-0.1-3.1,0.6l-0.6,0.4
				c-0.2,0.2-0.5,0.2-0.7,0l-0.6-0.4c-0.9-0.7-2-0.9-3.1-0.6l-5.6,1.8c-1.1,0.4-2,1.3-2.3,2.5l-3,13.9c0,0,0,0-0.1,0l-10.9,2
				c-0.8,0.2-1.4,0.8-1.5,1.6c-0.1,0.7,0.2,1.4,0.7,1.8c1.3,1.4,12.6,12.8,26.6,12.8c14,0,25.3-11.4,26.6-12.8
				C173.1,198.7,173.3,198.1,173.2,197.3z M136.7,180.4c0-0.2,0.2-0.4,0.4-0.4l5.6-1.8c0.1,0,0.1,0,0.2,0c0.1,0,0.3,0,0.4,0.1
				l0.6,0.4c1.2,0.9,2.9,0.9,4.1,0l0.6-0.4c0.1-0.1,0.3-0.2,0.5-0.1l5.9,1.9l2.7,10.7c-10.1,6.3-20.3,1.8-23.2,0.2L136.7,180.4z
				 M133.9,193.9c2.4,1.2,7,3,12.6,3c3.7,0,7.8-0.8,12-3.2l0.3,1c-8.5,7.2-16.5,7.3-25,0.4L133.9,193.9z M145.9,209.2
				c-11,0-20.5-8.1-23.6-11l8.8-1.6c9.8,8.4,19.8,8.4,29.7,0l0.7,0.1l0,0l8.1,1.5C166.4,201.1,156.9,209.2,145.9,209.2z" />
      </g>
    </g>
    <path class="st2" d="M210.5,206.8c0,0-0.1,0-0.1,0c0,0,0.1,0.1,0.3,0.4l0,0c-0.1,0.1-0.2,0.1-0.3,0c-0.3-0.3-0.3-0.3-0.3-0.3h-0.3
		v-0.1c0-0.1,0.1-0.2,0.2-0.2h0.1c0.1,0,0.2,0,0.2,0c0,0,0.1,0,0.1-0.1c0,0,0-0.1-0.3-0.1h-0.4v0.8c0,0.1-0.1,0.2-0.2,0.2h-0.1l0-1
		c0-0.1,0.1-0.2,0.2-0.2h0.5c0.5,0,0.6,0.3,0.6,0.4C210.7,206.7,210.6,206.8,210.5,206.8 M210.1,205.9c-0.5,0-0.9,0.4-0.9,0.8
		c0,0.5,0.4,0.8,0.9,0.8c0.5,0,1-0.4,1-0.8C211,206.3,210.6,205.9,210.1,205.9 M210.1,207.8c-0.7,0-1.2-0.5-1.2-1.1
		c0-0.6,0.5-1.1,1.2-1.1c0.7,0,1.2,0.5,1.2,1.1C211.3,207.3,210.7,207.8,210.1,207.8" />
    <g>
      <path class="st0" d="M70.9,123.6h10.6c6.3,0,10.3,3.6,10.3,9v0.1c0,6.1-4.9,9.2-10.8,9.2h-5.4v8.7h-4.7V123.6z M81.1,137.6
			c3.6,0,5.8-2,5.8-4.8v-0.1c0-3.2-2.3-4.8-5.8-4.8h-5.5v9.7H81.1z" />
      <path class="st0" d="M92.2,140.5L92.2,140.5c0-5.9,4.1-10.7,9.9-10.7c6.5,0,9.8,5.1,9.8,10.9c0,0.4,0,0.8-0.1,1.3h-15
			c0.5,3.3,2.9,5.2,5.9,5.2c2.3,0,3.9-0.8,5.5-2.4l2.7,2.4c-1.9,2.3-4.6,3.8-8.3,3.8C96.8,151.1,92.2,146.8,92.2,140.5z M107.3,139
			c-0.3-3-2.1-5.4-5.2-5.4c-2.9,0-4.9,2.2-5.3,5.4H107.3z" />
      <path class="st0" d="M114.9,130.2h4.7v3.1c1.3-1.9,3.2-3.5,6.4-3.5c4.6,0,7.2,3.1,7.2,7.8v13h-4.7V139c0-3.2-1.6-5-4.4-5
			c-2.7,0-4.6,1.9-4.6,5v11.5h-4.7V130.2z" />
      <path class="st0" d="M139.6,128h-8.6v-4.4h21.9v4.4h-8.6v22.6h-4.8V128z" />
      <path class="st0" d="M150.2,140.5L150.2,140.5c0-5.9,4.1-10.7,9.9-10.7c6.5,0,9.8,5.1,9.8,10.9c0,0.4,0,0.8-0.1,1.3h-15
			c0.5,3.3,2.9,5.2,5.9,5.2c2.3,0,3.9-0.8,5.5-2.4l2.7,2.4c-1.9,2.3-4.6,3.8-8.3,3.8C154.7,151.1,150.2,146.8,150.2,140.5z
			 M165.2,139c-0.3-3-2.1-5.4-5.2-5.4c-2.9,0-4.9,2.2-5.3,5.4H165.2z" />
      <path class="st0" d="M170.4,147.9l2.1-3.2c2.2,1.7,4.6,2.5,6.7,2.5c2,0,3.2-0.8,3.2-2.2V145c0-1.6-2.2-2.1-4.5-2.9
			c-3-0.8-6.4-2.1-6.4-6v-0.1c0-3.9,3.2-6.2,7.2-6.2c2.5,0,5.3,0.9,7.5,2.3l-1.9,3.3c-2-1.2-4-1.9-5.7-1.9c-1.8,0-2.9,0.8-2.9,2v0.1
			c0,1.5,2.2,2.1,4.6,2.9c3,0.9,6.3,2.3,6.3,5.9v0.1c0,4.3-3.3,6.4-7.6,6.4C176.2,151,173,149.9,170.4,147.9z" />
      <path class="st0" d="M191,145v-10.7h-2.6v-4h2.6v-5.6h4.7v5.6h5.5v4h-5.5v10c0,1.8,0.9,2.5,2.5,2.5c1,0,2-0.2,2.9-0.7v3.8
			c-1.2,0.7-2.4,1-4.2,1C193.4,150.9,191,149.4,191,145z" />
      <path class="st0" d="M211.2,139.2h-7.4v-4.3h7.4v-7.3h4.4v7.3h7.4v4.3h-7.4v7.4h-4.4V139.2z" />
    </g>
  </g>
</svg>