<?xml version="1.0" encoding="utf-8"?>
<!-- Generator: Adobe Illustrator 19.2.0, SVG Export Plug-In . SVG Version: 6.00 Build 0)  -->
<svg version="1.1" id="Layer_1" xmlns="http://www.w3.org/2000/svg" xmlns:xlink="http://www.w3.org/1999/xlink" x="0px" y="0px" viewBox="0 0 288 288" style="enable-background:new 0 0 288 288;" xml:space="preserve">
  <style type="text/css">
	.st0{fill:#FFFFFF;}
	.st1{fill:#6A747C;}
	.st2{fill:#E2231A;}
</style>
  <g>
    <g>
      <g>
        <path class="st0" d="M144.7,48.6c-52.6,0-95.4,42.8-95.4,95.4c0,26.5,10.6,51.1,29.8,69.3l1,1l1.1-1c2.8-2.6,5.7-4.9,8.7-7.1
				c14.6,12.9,33.8,20.8,54.8,20.8c21,0,40.2-7.9,54.8-20.8c3,2.2,5.9,4.5,8.7,7.1l1.1,1l1-1c19.3-18.2,29.9-42.9,29.9-69.3
				C240.2,91.4,197.3,48.6,144.7,48.6z" />
        <path class="st1" d="M144.7,48.6c-52.6,0-95.4,42.8-95.4,95.4c0,26.5,10.6,51.1,29.8,69.3l1,1l1.1-1c2.8-2.6,5.7-4.9,8.7-7.1
				c14.6,12.9,33.8,20.8,54.8,20.8c21,0,40.2-7.9,54.8-20.8c3,2.2,5.9,4.5,8.7,7.1l1.1,1l1-1c19.3-18.2,29.9-42.9,29.9-69.3
				C240.2,91.4,197.3,48.6,144.7,48.6z M144.7,223.9c-20,0-38.2-7.4-52.2-19.5c6.7-4.5,13.9-8,21.4-10.7c0.3,3.7,3.4,6.7,7.2,6.7
				h5.5c-0.7,1.1-1.2,2.4-1.2,3.9c0,3.8,3.1,6.9,6.9,6.9h31c4.5,0,11.8-3,11.8-11.1c0-3.3-1.1-5.7-2.6-7.4
				c8.6,2.7,16.8,6.6,24.4,11.7C182.9,216.5,164.7,223.9,144.7,223.9z M64.8,144c0-44.1,35.8-79.9,79.9-79.9s79.9,35.8,79.9,79.9
				c0,23-9.8,43.7-25.3,58.3c-11.1-7.6-23.7-12.8-37-15.2c-1.7-2.4-4.7-3.7-8.6-3.7c-0.1,0-0.2,0-0.4,0c0-6-4.9-10.8-10.9-10.8
				c-4.5,0-8.5,2.8-10.1,6.8h-2.9c-3.9,0-7.3,2.7-8.1,6.5h-0.2c-3,0-5.6,1.8-6.7,4.5c-8.6,2.8-16.8,6.9-24.3,12
				C74.6,187.7,64.8,167,64.8,144z M150.3,183.9c-2.8,0.9-5,2.9-5.8,5.4c-0.3,0.8,0.2,1.7,1,1.9c0.8,0.3,1.7-0.2,1.9-1
				c0.7-2.3,3.3-3.8,6.3-3.8c4.4,0,7.1,2.2,7.1,5.8c-0.1,2.8-2.4,5.1-5.3,5.1h-34.4c-2.3,0-4.2-1.9-4.2-4.2s1.9-4.2,4.2-4.2h3
				l0.1-1.5c0.1-2.8,2.5-5,5.3-5h5.2l0.3-1.1c0.9-3.4,4-5.7,7.5-5.7c4.3,0,7.8,3.5,7.8,7.8V183.9z M132.4,200.4
				C132.4,200.4,132.4,200.4,132.4,200.4l23.2,0c4.5,0,8.1-3.5,8.3-8c0,0,0-0.1,0-0.1c0-0.1,0-0.1,0-0.2c0,0,0-0.1,0-0.1h0
				c0,0,0,0,0,0h0.9c1.4,0,7.3,1.4,7.3,8.1c0,6.6-6.3,8-8.7,8h-31c-2.1,0-3.9-1.7-3.9-3.9C128.5,202.2,130.3,200.4,132.4,200.4z
				 M209.2,210.1c-2.4-2.1-4.8-4.1-7.4-6c15.9-15.1,25.9-36.5,25.9-60.1c0-45.8-37.2-83-83-83c-45.8,0-83,37.2-83,83
				c0,23.6,9.9,45,25.8,60.1c-2.5,1.9-5,3.8-7.4,6c-17.9-17.5-27.8-40.9-27.8-66.1c0-50.9,41.4-92.4,92.4-92.4s92.4,41.4,92.4,92.4
				C237.1,169.1,227.2,192.5,209.2,210.1z" />
        <g>
          <g>
            <path class="st2" d="M120.9,90.6c-2.2,0-4,1.5-4,3.4c0,1.9,1.8,3.4,4,3.4s4-1.5,4-3.4C124.9,92.1,123.1,90.6,120.9,90.6
						 M120.9,99.7c-3.5,0-6.3-2.5-6.3-5.7c0-3.2,2.8-5.7,6.3-5.7c3.5,0,6.3,2.5,6.3,5.7C127.1,97.2,124.4,99.7,120.9,99.7" />
            <path class="st2" d="M143.3,99.7c-1.3,0-2.3-1-2.3-2.3l0-4.7c0-1.1-1-2-2.2-2c-1.2,0-2.2,0.9-2.2,2l0,7c-1.3,0-2.3-1-2.3-2.3
						l0-4.8c0-1.1-1-2-2.2-2c-1.2,0-2.2,0.9-2.2,2l0,4.7c0,1.3-1,2.3-2.3,2.3l0-7c0-2.4,2-4.3,4.5-4.3c1.3,0,2.5,0.5,3.3,1.4
						c0.8-0.9,2-1.4,3.3-1.4c2.5,0,4.5,1.9,4.5,4.3L143.3,99.7z" />
            <path class="st2" d="M150.8,99.7c-0.6,0-1.2,0-1.7-0.2c-1.2-0.3-1.9-1.6-1.6-2.8c0-0.1,0.1-0.3,0.1-0.4l0,0
						c0.6,0.7,1.7,1.1,3.1,1.1c2.1,0,3.7-1.5,3.7-3.3c0-1.9-1.6-3.5-3.7-3.5c-2,0-4,1.1-4,3.5l0,7.4c0,1.2-1,2.2-2.3,2.2l0-9.6
						c0-3.3,2.6-5.8,6.2-5.8c1.6,0,3.1,0.6,4.2,1.6c1.1,1.1,1.8,2.5,1.8,4.1C156.8,97.2,154.1,99.7,150.8,99.7" />
            <path class="st2" d="M167,86.2l-4.9,0l0,13.5h-0.1c-1.2,0-2.2-1-2.2-2.3l0-11.2l-4.9,0c-1.2,0-2.2-1-2.2-2.3l16.6,0
						C169.3,85.1,168.3,86.2,167,86.2" />
            <path class="st2" d="M181.5,86.3l-3.2,7.1l6.1,0l-3.3-7.2L181.5,86.3z M186.6,98.3l-1.2-2.6l-8.1,0l-1.2,2.7
						c-0.6,1.1-2.1,1.4-3.2,1.4l6.6-14.5c0.4-0.8,1-1.3,1.8-1.3c0.8,0,1.5,0.5,1.8,1.3l6.5,14.3C188.4,99.7,187.1,99.3,186.6,98.3" />
            <path class="st2" d="M112,88.2c-1.2-1.3-3-2.2-5-2.2c-3.5,0-6.4,2.6-6.4,5.7c0,3.2,2.9,5.8,6.4,5.8c1.7,0,3.3-0.6,4.5-1.7
						c0.8-0.7,2.1-0.6,2.9,0c-0.6,1-1.5,1.8-2.5,2.4c-1.5,0.9-3.1,1.4-4.9,1.4c-4.8,0-8.7-3.6-8.7-8c0-4.4,3.9-8,8.7-8
						c3.4,0,6.5,1.9,7.9,4.7C114,89.1,112.8,89,112,88.2" />
            <path class="st2" d="M191,97.8c0,0-0.1,0-0.1,0c0,0,0.1,0.1,0.3,0.4l0,0c-0.1,0.1-0.2,0.1-0.3,0c-0.3-0.3-0.3-0.3-0.3-0.3
						l-0.3,0v-0.1c0-0.1,0.1-0.2,0.2-0.2h0.1c0.1,0,0.2,0,0.2,0c0,0,0.1,0,0.1-0.1c0,0,0-0.1-0.3-0.1l-0.4,0v0.8
						c0,0.1-0.1,0.2-0.2,0.2h-0.1l0-1c0-0.1,0.1-0.2,0.2-0.2l0.5,0c0.5,0,0.6,0.3,0.6,0.4C191.2,97.6,191.1,97.8,191,97.8
						 M190.5,96.9c-0.5,0-0.9,0.4-0.9,0.8c0,0.5,0.4,0.8,0.9,0.8c0.5,0,1-0.4,1-0.8C191.5,97.3,191,96.9,190.5,96.9 M190.5,98.8
						c-0.7,0-1.2-0.5-1.2-1.1c0-0.6,0.5-1.1,1.2-1.1c0.7,0,1.2,0.5,1.2,1.1C191.7,98.3,191.2,98.8,190.5,98.8" />
            <path class="st2" d="M170,83.9l0,13.6c0,1.2,1,2.2,2.3,2.2l0-13.6C172.3,84.9,171.3,83.9,170,83.9" />
          </g>
          <path class="st2" d="M243.5,109.9H37.6v49.9c0,4.6,3.8,8.4,8.4,8.4h205.9v-49.9C251.8,113.7,248.1,109.9,243.5,109.9z" />
        </g>
        <g>
          <g>
            <path class="st0" d="M98.7,151.8c-7.5,0-13.1-5.9-13.1-13.3c0-7.4,5.5-13.4,13.3-13.4c4.8,0,7.6,1.7,10.1,4l-2.9,3.4
						c-2.1-1.9-4.3-3.2-7.2-3.2c-4.9,0-8.5,4.1-8.5,9.2c0,5.1,3.6,9.2,8.5,9.2c3.2,0,5.2-1.3,7.4-3.4l2.9,3
						C106.5,150,103.6,151.8,98.7,151.8z" />
            <path class="st0" d="M112.3,151.3v-27h4.5v27H112.3z" />
            <path class="st0" d="M130.7,151.8c-5.9,0-10.3-4.5-10.3-10.1c0-5.6,4.4-10.2,10.4-10.2c6,0,10.4,4.5,10.4,10.2
						C141.1,147.2,136.7,151.8,130.7,151.8z M130.7,135.4c-3.6,0-5.9,2.8-5.9,6.2c0,3.5,2.5,6.3,5.9,6.3c3.6,0,5.9-2.8,5.9-6.2
						C136.7,138.2,134.2,135.4,130.7,135.4z" />
            <path class="st0" d="M157.4,131.8h4.5v19.5h-4.5v-3c-1.3,1.8-3.1,3.4-6.1,3.4c-4.4,0-6.9-3-6.9-7.5v-12.4h4.5v11.1
						c0,3,1.5,4.8,4.2,4.8c2.6,0,4.4-1.8,4.4-4.8V131.8z" />
            <path class="st0" d="M181.2,151.3v-3.2c-1.4,2-3.5,3.7-6.6,3.7c-4.6,0-9-3.7-9-10.2s4.4-10.2,9-10.2c3.2,0,5.2,1.6,6.6,3.4
						v-10.5h4.5v27H181.2z M175.6,135.3c-3.1,0-5.6,2.4-5.6,6.3c0,3.8,2.6,6.3,5.6,6.3c3,0,5.6-2.5,5.6-6.3S178.6,135.3,175.6,135.3
						z" />
            <path class="st0" d="M196.8,129.3h4.2v7.1h7.1v4.1H201v7.1h-4.2v-7.1h-7.1v-4.1h7.1V129.3z" />
          </g>
        </g>
      </g>
    </g>
    <path class="st1" d="M209.6,207.8c0,0-0.1,0-0.1,0c0,0,0.1,0.1,0.3,0.4l0,0c-0.1,0.1-0.2,0.1-0.3,0c-0.3-0.3-0.3-0.3-0.3-0.3
		l-0.3,0v-0.1c0-0.1,0.1-0.2,0.2-0.2h0.1c0.1,0,0.2,0,0.2,0c0,0,0.1,0,0.1-0.1c0,0,0-0.1-0.3-0.1h-0.4v0.8c0,0.1-0.1,0.2-0.2,0.2
		h-0.1l0-1c0-0.1,0.1-0.2,0.2-0.2h0.5c0.5,0,0.6,0.3,0.6,0.4C209.7,207.6,209.7,207.7,209.6,207.8 M209.1,206.9
		c-0.5,0-0.9,0.4-0.9,0.8c0,0.5,0.4,0.8,0.9,0.8c0.5,0,1-0.4,1-0.8C210.1,207.2,209.6,206.9,209.1,206.9 M209.1,208.8
		c-0.7,0-1.2-0.5-1.2-1.1c0-0.6,0.5-1.1,1.2-1.1c0.7,0,1.2,0.5,1.2,1.1C210.3,208.3,209.8,208.8,209.1,208.8" />
  </g>
</svg>